<svg xmlns="http://www.w3.org/2000/svg" xmlns:ev="http://www.w3.org/2001/xml-events" xmlns:xlink="http://www.w3.org/1999/xlink" width="11in" height="816" class="st17" color-interpolation-filters="sRGB" viewBox="0 0 792 612" xml:space="preserve"><style type="text/css">.st1{fill:#9cc882;stroke:#fff;stroke-linecap:round;stroke-linejoin:round;stroke-width:1}.st2{fill:#fff;font-family:Franklin Gothic Book;font-size:.666664em}.st3{fill:#fff;stroke:#dfa202;stroke-linecap:round;stroke-linejoin:round;stroke-width:1}.st4{fill:#7c5b02;font-family:Franklin Gothic Book;font-size:.666664em}.st5,.st6{stroke:#6bae2f}.st5{marker-end:url(#mrkr4-12);stroke-linecap:round;stroke-linejoin:round;stroke-width:.5}.st6{fill:#6bae2f;fill-opacity:1;stroke-opacity:1;stroke-width:.16556291390728}.st7{fill:#fff;font-family:Franklin Gothic Book;font-size:.833336em}.st8{font-size:1em}.st9{fill:#fff;stroke:none;stroke-linecap:butt;stroke-width:7.2}.st10{fill:#528722;font-family:Franklin Gothic Book;font-size:.666664em}.st11{fill:#7eb6aa}.st12{stroke:#fff;stroke-linecap:round;stroke-linejoin:round;stroke-width:1}.st13{font-size:.799995em}.st14{fill:#fff}.st15{stroke:#dea202;stroke-linecap:round;stroke-linejoin:round;stroke-width:1}.st16{fill:#7b5a01;font-family:Franklin Gothic Book;font-size:.833336em}.st17{fill:none;fill-rule:evenodd;font-size:12px;overflow:visible;stroke-linecap:square;stroke-miterlimit:3}</style><defs id="Markers"><g id="lend4"><path d="M 2 1 L 0 0 L 2 -1 L 2 1" style="stroke:none"/></g><marker id="mrkr4-12" class="st6" markerUnits="strokeWidth" orient="auto" overflow="visible" refX="-12.08"><use transform="scale(-6.04,-6.04)" xlink:href="#lend4"/></marker></defs><g><title>Process</title><g id="shape172-1" transform="translate(184.5,-421.875)"><title>Process.172</title><desc>Start `pcied`</desc><rect width="99" height="20.25" x="0" y="591.75" class="st1"/><text x="27.17" y="604.27" class="st2">Start `pcied`</text></g><g id="shape175-4" transform="translate(198,-479.25)"><title>Start/End.11.175</title><desc>PMON</desc><path d="M12.37 612 L59.62 612 A12.375 12.375 -180 0 0 59.62 587.25 L12.37 587.25 A12.375 12.375 -180 1 0 12.37 612 Z" class="st3"/><text x="25.37" y="602.02" class="st4">PMON</text></g><g id="shape179-7" transform="translate(225,-479.25)"><title>Dynamic connector.179</title><path d="M9 612 L9 643.08" class="st5"/></g><g id="shape202-13" transform="translate(234,-421.875)"><title>Dynamic connector</title><path d="M0 612 L0 630 L76.5 630 L76.5 662.21" class="st5"/></g><g id="shape208-18" transform="translate(236.25,-297)"><title>Diamond</title><desc>Get_pcie_check &amp;&amp; status changed?</desc><path d="M74.25 612 L148.5 577.69 L74.25 543.37 L0 577.69 L74.25 612 Z" class="st1"/><text x="18.43" y="574.69" class="st7">Get_pcie_check &amp;&amp; status <tspan x="53.59" class="st8" dy="1.2em">changed?</tspan></text></g><g id="shape241-22" transform="translate(310.5,-297)"><title>Dynamic connector.241</title><desc>Yes</desc><path d="M0 612 L0 630 L49.5 630 L49.5 637.46" class="st5"/><rect width="11.957" height="9.6" x="16.522" y="625.2" class="st9"/><text x="16.52" y="632.4" class="st10">Yes</text></g><g id="shape243-29" transform="translate(384.75,-331.313)"><title>Dynamic connector.243</title><desc>No</desc><path d="M0 612 L18 612 L18 664.31 L-24.75 664.31 L-24.75 671.77" class="st5"/><rect width="9.414" height="9.6" x="13.293" y="652.482" class="st9"/><text x="13.29" y="659.68" class="st10">No</text></g><g id="shape244-36" transform="translate(504,-315)"><title>Process.15.244</title><desc>Delay 1 min</desc><rect width="83.25" height="38.25" x="0" y="573.75" class="st1"/><text x="21.57" y="595.27" class="st2">Delay 1 min</text></g><g id="shape246-39" transform="translate(545.625,-350.438)"><title>Dynamic connector.246</title><path d="M0 609.19 L0 578.81 L-235.13 578.81 L-235.13 590.77" class="st5"/></g><g id="shape248-44" transform="translate(286.875,-211.5)"><title>Database</title><desc>update STATE_DB &quot;PCIE_STATUS|PCIE_DEVICES&quot; &quot;PASSED&quot;/&quot;FAILED&quot;</desc><path d="M6.75 558 L146.25 558 A57.375 57.375 0 0 1 146.25 612 L6.75 612 A57.375 57.375 0 0 1 6.75 558 Z" class="st11"/><path d="M6.75 558 L146.25 558 A57.375 57.375 0 0 1 146.25 612 L6.75 612 A57.375 57.375 0 0 1 6.75 558" class="st12"/><path d="M146.25 558 A57.375 57.375 -180 0 0 146.25 612" class="st12"/><text x="35.14" y="578.4" class="st7">update STATE_DB<tspan x="21.39" class="st13" dy="1.275em">&quot;PCIE_STATUS|PCIE_DEVICES&quot; </tspan><tspan x="40.63" class="st13" dy="1.2em">&quot;PASSED&quot;/&quot;FAILED&quot;</tspan></text></g><g id="shape249-51" transform="translate(439.875,-238.5)"><title>Dynamic connector.249</title><path d="M0 612 L105.75 612 L105.75 541.54" class="st5"/></g><g id="shape238-56" transform="translate(362.25,-434.25)"><title>Filled</title><desc>pcie.yaml</desc><path d="M0 612 L72 612 L72 589.5 L0 589.5 L0 612 Z" class="st14"/><path d="M0 612 L-32.29 689.62" class="st15"/><path d="M0 612 L72 612 L72 589.5 L0 589.5 L0 612" class="st15"/><text x="16.06" y="603.75" class="st16">pcie.yaml</text></g></g></svg>