<svg xmlns="http://www.w3.org/2000/svg" xmlns:ev="http://www.w3.org/2001/xml-events" xmlns:xlink="http://www.w3.org/1999/xlink" width="11in" height="816" class="st17" color-interpolation-filters="sRGB" viewBox="0 0 792 612" xml:space="preserve"><style type="text/css">.st1{fill:#9cc882;stroke:#fff;stroke-linecap:round;stroke-linejoin:round;stroke-width:1}.st2{fill:#fff;font-family:Franklin Gothic Book;font-size:.666664em}.st3{fill:#fff;stroke:#dfa202;stroke-linecap:round;stroke-linejoin:round;stroke-width:1}.st4{fill:#7c5b02;font-family:Franklin Gothic Book;font-size:.666664em}.st5,.st6{stroke:#6bae2f}.st5{marker-end:url(#mrkr4-12);stroke-linecap:round;stroke-linejoin:round;stroke-width:.5}.st6{fill:#6bae2f;fill-opacity:1;stroke-opacity:1;stroke-width:.16556291390728}.st7{fill:#7eb6aa}.st8{stroke:#fff;stroke-linecap:round;stroke-linejoin:round;stroke-width:1}.st9{fill:#fff;font-family:Franklin Gothic Book;font-size:.833336em}.st10{fill:#fff;stroke:none;stroke-linecap:butt}.st11{fill:#528722;font-family:Franklin Gothic Book;font-size:.666664em}.st12{stroke:none;stroke-linecap:butt;stroke-width:7.2}.st12,.st13{fill:#fff}.st14{stroke:#dea202;stroke-linecap:round;stroke-linejoin:round;stroke-width:1}.st15{fill:#7b5a01;font-family:Franklin Gothic Book;font-size:.833336em}.st16{font-size:.799995em}.st17{fill:none;fill-rule:evenodd;font-size:12px;overflow:visible;stroke-linecap:square;stroke-miterlimit:3}</style><defs id="Markers"><g id="lend4"><path d="M 2 1 L 0 0 L 2 -1 L 2 1" style="stroke:none"/></g><marker id="mrkr4-12" class="st6" markerUnits="strokeWidth" orient="auto" overflow="visible" refX="-12.08"><use transform="scale(-6.04,-6.04)" xlink:href="#lend4"/></marker></defs><g><title>Process</title><g id="shape172-1" transform="translate(184.5,-520.875)"><title>Process.172</title><desc>Pcie-check.service</desc><rect width="99" height="20.25" x="0" y="591.75" class="st1"/><text x="18.51" y="604.27" class="st2">Pcie-check.service</text></g><g id="shape175-4" transform="translate(81,-558)"><title>Start/End.11.175</title><desc>systemd</desc><path d="M12.37 612 L59.62 612 A12.375 12.375 -180 0 0 59.62 587.25 L12.37 587.25 A12.375 12.375 -180 1 0 12.37 612 Z" class="st3"/><text x="21.91" y="602.02" class="st4">systemd</text></g><g id="shape179-7" transform="translate(117,-558)"><title>Dynamic connector.179</title><path d="M0 612 L0 639 L61.46 639" class="st5"/></g><g id="shape185-13" transform="translate(207,-434.25)"><title>Subprocess.13.185</title><desc>Pcie-check.sh</desc><path d="M0 612 L72 612 L72 558 L0 558 L0 612 Z" class="st7"/><path d="M0 612 L72 612 L72 558 L0 558 L0 612" class="st8"/><path d="M9 612 L9 558" class="st8"/><path d="M63 612 L63 558" class="st8"/><text x="12.91" y="587.4" class="st2">Pcie-check.sh</text></g><g id="shape202-19" transform="translate(229.5,-520.875)"><title>Dynamic connector</title><path d="M4.5 612 L4.5 630 L13.5 630 L13.5 638.58" class="st5"/></g><g id="shape203-24" transform="translate(243,-434.25)"><title>Dynamic connector.203</title><path d="M0 612 L0 630 L49.5 630 L49.5 674.58" class="st5"/></g><g id="shape205-29" transform="translate(585,-315)"><title>Rectangle</title><desc>/sys/bus/pci/rescan</desc><rect width="108" height="45" x="0" y="567" class="st1"/><text x="10.09" y="592.5" class="st9">/sys/bus/pci/rescan</text></g><g id="shape206-32" transform="translate(384.75,-328.5)"><title>Dynamic connector.206</title><desc>Fail</desc><path d="M0 603 L27.71 603" class="st5"/><rect width="11.969" height="9.6" x="10.89" y="598.2" class="st10"/><text x="10.89" y="605.4" class="st11">Fail</text></g><g id="shape207-39" transform="translate(639,-353.813)"><title>Dynamic connector.207</title><path d="M0 605.81 L0 582.19 L-346.5 582.19 L-346.5 594.15" class="st5"/></g><g id="shape208-44" transform="translate(200.25,-309.375)"><title>Diamond</title><desc>Get_pcie_check ?</desc><path d="M92.25 612 L184.5 583.87 L92.25 555.75 L0 583.87 L92.25 612 Z" class="st1"/><text x="54.88" y="586.88" class="st9">Get_pcie_check ?</text></g><g id="shape212-47" transform="translate(418.5,-309.375)"><title>Diamond.212</title><desc>Time &lt; end?</desc><path d="M54 612 L108 583.87 L54 555.75 L0 583.87 L54 612 Z" class="st1"/><text x="27.79" y="586.88" class="st9">Time &lt; end?</text></g><g id="shape213-50" transform="translate(526.5,-328.5)"><title>Dynamic connector.213</title><desc>Yes</desc><path d="M0 603 L52.46 603" class="st5"/><rect width="11.957" height="9.6" x="23.272" y="598.2" class="st12"/><text x="23.27" y="605.4" class="st11">Yes</text></g><g id="shape230-57" transform="translate(292.5,-309.375)"><title>Dynamic connector.230</title><desc>Pass</desc><path d="M0 612 L0 621 L95.62 621 L95.62 627.33" class="st5"/><rect width="16.125" height="9.6" x="41.438" y="616.2" class="st12"/><text x="41.44" y="623.4" class="st11">Pass</text></g><g id="shape231-64" transform="translate(472.5,-309.375)"><title>Dynamic connector.231</title><desc>No</desc><path d="M0 612 L0 621 L-84.38 621 L-84.38 627.33" class="st5"/><rect width="9.414" height="9.6" x="-48.582" y="616.2" class="st12"/><text x="-48.58" y="623.4" class="st11">No</text></g><g id="shape239-71" transform="translate(357.75,-176.063)"><title>Start/End.11</title><desc>Exit</desc><path d="M10.97 612 L47.53 612 A10.9688 10.9688 -180 0 0 47.53 590.06 L10.97 590.06 A10.9688 10.9688 -180 1 0 10.97 612 Z" class="st3"/><text x="23.21" y="603.43" class="st4">Exit</text></g><g id="shape241-74" transform="translate(396.563,-234)"><title>Dynamic connector.241</title><path d="M-8.44 612 L-8.44 630 L-9.56 630 L-9.56 641.96" class="st5"/></g><g id="shape238-79" transform="translate(362.25,-434.25)"><title>Filled</title><desc>pcie.yaml</desc><path d="M0 612 L72 612 L72 589.5 L0 589.5 L0 612 Z" class="st13"/><path d="M0 612 L-48.54 687.09" class="st14"/><path d="M0 612 L72 612 L72 589.5 L0 589.5 L0 612" class="st14"/><text x="16.06" y="603.75" class="st15">pcie.yaml</text></g><g id="shape240-84" transform="translate(315,-234)"><title>Database</title><desc>update STATE_DB &quot;PCIE_STATUS|PCIE_DEVICES&quot; &quot;PASSED&quot;/&quot;FAILED&quot;</desc><path d="M6.75 558 L146.25 558 A57.375 57.375 0 0 1 146.25 612 L6.75 612 A57.375 57.375 0 0 1 6.75 558 Z" class="st7"/><path d="M6.75 558 L146.25 558 A57.375 57.375 0 0 1 146.25 612 L6.75 612 A57.375 57.375 0 0 1 6.75 558" class="st8"/><path d="M146.25 558 A57.375 57.375 -180 0 0 146.25 612" class="st8"/><text x="35.14" y="578.4" class="st9">update STATE_DB<tspan x="21.39" class="st16" dy="1.275em">&quot;PCIE_STATUS|PCIE_DEVICES&quot; </tspan><tspan x="40.63" class="st16" dy="1.2em">&quot;PASSED&quot;/&quot;FAILED&quot;</tspan></text></g></g></svg>