<svg xmlns="http://www.w3.org/2000/svg" xmlns:ev="http://www.w3.org/2001/xml-events" xmlns:xlink="http://www.w3.org/1999/xlink" width="3379.315" height="3832.848" class="st10" color-interpolation-filters="sRGB" viewBox="0 0 2534.49 2874.64" xml:space="preserve"><style type="text/css">.st1,.st2{fill:#4672c4;stroke:#000;stroke-width:2}.st2{fill:#70ad47}.st3{fill:#feffff;font-family:Calibri;font-size:3em}.st4{fill:#ed7d31;stroke:#000;stroke-opacity:.95;stroke-width:2}.st5,.st6{fill:#feffff;font-family:Arial;font-size:2.50001em}.st6{font-family:Calibri;font-size:4.00001em}.st7{fill:#70ad47;stroke:#30518f;stroke-width:.749999}.st8,.st9{fill:#ed7d31;stroke:#000;stroke-width:2}.st9{fill:#7f7f7f}.st10{fill:none;fill-rule:evenodd;font-size:12px;overflow:visible;stroke-linecap:square;stroke-miterlimit:3}</style><g><title>Page-11</title><g id="shape26-1" transform="translate(1153.86,-416.85)"><title>Rectangle.127</title><rect width="1360.63" height="850.391" x="0" y="2024.25" class="st1"/></g><g id="shape1-3" transform="translate(1153.86,-1380.62)"><title>Rectangle</title><rect width="623.621" height="1474.02" x="0" y="1400.62" class="st1"/></g><g id="shape2-5" transform="translate(1210.55,-2287.71)"><title>Rounded Rectangle.42</title><desc>DEVICE API</desc><path d="M51.02 2874.64 L459.21 2874.64 A51.0226 51.0226 -180 0 0 510.24 2823.61 L510.24 2415.42 A51.0226 51.0226 -180 0 0 459.21 2364.4 L51.02 2364.4 A51.0226 51.0226 -180 0 0 0 2415.42 L0 2823.61 A51.0226 51.0226 -180 0 0 51.02 2874.64 Z" class="st2"/><text x="173.8" y="2400.8" class="st3">DEVICE API</text></g><g id="shape3-8" transform="translate(1238.9,-2684.57)"><title>Rectangle.43</title><desc>get_name</desc><rect width="453.542" height="56.693" x="0" y="2817.95" class="st4"/><text x="160.05" y="2855.3" class="st5">get_name</text></g><g id="shape4-11" transform="translate(1238.9,-2599.53)"><title>Rectangle.4</title><desc>get_presence</desc><rect width="453.541" height="56.693" x="0" y="2817.95" class="st4"/><text x="135.87" y="2855.3" class="st5">get_presence</text></g><g id="shape5-14" transform="translate(1238.9,-2514.49)"><title>Rectangle.5</title><desc>get_model</desc><rect width="453.541" height="56.693" x="0" y="2817.95" class="st4"/><text x="156.72" y="2855.3" class="st5">get_model</text></g><g id="shape6-17" transform="translate(1238.9,-2429.45)"><title>Rectangle.49</title><desc>get_serial</desc><rect width="453.541" height="56.693" x="0" y="2817.95" class="st4"/><text x="161.73" y="2855.3" class="st5">get_serial</text></g><g id="shape7-20" transform="translate(1238.9,-2344.41)"><title>Rectangle.50</title><desc>get_status</desc><rect width="453.541" height="56.693" x="0" y="2817.95" class="st4"/><text x="157.56" y="2855.3" class="st5">get_status</text></g><g id="shape8-23" transform="translate(20,-1380.62)"><title>Rectangle.105</title><desc>FW Utility</desc><rect width="283.465" height="1474.02" x="0" y="1400.62" class="st1"/><text x="45.06" y="2152.03" class="st6">FW Utility</text></g><g id="shape9-26" transform="translate(416.849,3603.31) rotate(180)"><title>Simple Double Arrow.106</title><path d="M0 2846.3 L28.35 2817.95 L28.35 2832.12 L85.04 2832.12 L85.04 2817.95 L113.39 2846.3 L85.04 2874.64 L85.04 2860.47 L28.35 2860.47 L28.35 2874.64 L0 2846.3 Z" class="st7"/></g><g id="shape10-28" transform="translate(416.849,-1380.62)"><title>Rectangle.10</title><rect width="623.621" height="1474.02" x="0" y="1400.62" class="st1"/></g><g id="shape11-30" transform="translate(742.834,-1380.63)"><title>Rectangle.11</title><desc>platform_base.py</desc><rect width="297.638" height="56.693" x="0" y="2817.95" class="st8"/><text x="33.75" y="2855.3" class="st5">platform_base.py</text></g><g id="shape12-33" transform="translate(473.542,-2627.87)"><title>Rounded Rectangle.52</title><desc>CHASSIS API</desc><path d="M51.02 2874.64 L459.21 2874.64 A51.0227 51.0227 -180 0 0 510.24 2823.61 L510.24 2755.58 A51.0227 51.0227 -180 0 0 459.21 2704.56 L51.02 2704.56 A51.0227 51.0227 -180 0 0 0 2755.58 L0 2823.61 A51.0227 51.0227 -180 0 0 51.02 2874.64 Z" class="st2"/><text x="166.22" y="2740.96" class="st3">CHASSIS API</text></g><g id="shape13-36" transform="translate(501.889,-2684.57)"><title>Rectangle.53</title><desc>get_chassis</desc><rect width="453.542" height="56.693" x="0" y="2817.95" class="st4"/><text x="147.56" y="2855.3" class="st5">get_chassis</text></g><g id="shape14-39" transform="translate(1890.87,-1380.62)"><title>Rectangle.64</title><rect width="623.621" height="1474.02" x="0" y="1400.62" class="st1"/></g><g id="shape15-41" transform="translate(1947.56,-2287.71)"><title>Rounded Rectangle.70</title><desc>DEVICE API</desc><path d="M51.02 2874.64 L459.21 2874.64 A51.0226 51.0226 -180 0 0 510.24 2823.61 L510.24 2415.42 A51.0226 51.0226 -180 0 0 459.21 2364.4 L51.02 2364.4 A51.0226 51.0226 -180 0 0 0 2415.42 L0 2823.61 A51.0226 51.0226 -180 0 0 51.02 2874.64 Z" class="st2"/><text x="173.8" y="2400.8" class="st3">DEVICE API</text></g><g id="shape16-44" transform="translate(1975.91,-2684.57)"><title>Rectangle.71</title><desc>get_name</desc><rect width="453.542" height="56.693" x="0" y="2817.95" class="st4"/><text x="160.05" y="2855.3" class="st5">get_name</text></g><g id="shape17-47" transform="translate(1975.91,-2599.53)"><title>Rectangle.72</title><desc>get_presence</desc><rect width="453.541" height="56.693" x="0" y="2817.95" class="st4"/><text x="135.87" y="2855.3" class="st5">get_presence</text></g><g id="shape18-50" transform="translate(1975.91,-2514.49)"><title>Rectangle.73</title><desc>get_model</desc><rect width="453.541" height="56.693" x="0" y="2817.95" class="st4"/><text x="156.72" y="2855.3" class="st5">get_model</text></g><g id="shape19-53" transform="translate(1975.91,-2429.45)"><title>Rectangle.74</title><desc>get_serial</desc><rect width="453.541" height="56.693" x="0" y="2817.95" class="st4"/><text x="161.73" y="2855.3" class="st5">get_serial</text></g><g id="shape20-56" transform="translate(1975.91,-2344.41)"><title>Rectangle.75</title><desc>get_status</desc><rect width="453.541" height="56.693" x="0" y="2817.95" class="st4"/><text x="157.56" y="2855.3" class="st5">get_status</text></g><g id="shape21-59" transform="translate(1479.84,-1380.63)"><title>Rectangle.113</title><desc>chassis_base.py</desc><rect width="297.638" height="56.693" x="0" y="2817.95" class="st8"/><text x="37.92" y="2855.3" class="st5">chassis_base.py</text></g><g id="shape22-62" transform="translate(1210.55,-1890.86)"><title>Rounded Rectangle.123</title><desc>COMPONENT API</desc><path d="M51.02 2874.64 L459.21 2874.64 A51.0227 51.0227 -180 0 0 510.24 2823.61 L510.24 2585.5 A51.0227 51.0227 -180 0 0 459.21 2534.48 L51.02 2534.48 A51.0227 51.0227 -180 0 0 0 2585.5 L0 2823.61 A51.0227 51.0227 -180 0 0 51.02 2874.64 Z" class="st2"/><text x="127.88" y="2570.88" class="st3">COMPONENT API</text></g><g id="shape23-65" transform="translate(1238.9,-2117.64)"><title>Rectangle.124</title><desc>get_num_components</desc><rect width="453.542" height="56.693" x="0" y="2817.95" class="st4"/><text x="78.34" y="2855.3" class="st5">get_num_components</text></g><g id="shape24-68" transform="translate(1238.9,-2032.6)"><title>Rectangle.125</title><desc>get_all_component</desc><rect width="453.542" height="56.693" x="0" y="2817.95" class="st8"/><text x="100.01" y="2855.3" class="st5">get_all_component</text></g><g id="shape25-71" transform="translate(1238.9,-1947.56)"><title>Rectangle.126</title><desc>get_component</desc><rect width="453.542" height="56.693" x="0" y="2817.95" class="st8"/><text x="123.36" y="2855.3" class="st5">get_component</text></g><g id="shape32-74" transform="translate(1153.86,-20)"><title>Rectangle.134</title><desc>HW</desc><rect width="1360.63" height="283.465" x="0" y="2591.17" class="st9"/><text x="644.01" y="2747.31" class="st6">HW</text></g><g id="shape33-77" transform="translate(4311.97,1494.02) rotate(90)"><title>Simple Double Arrow.138</title><path d="M0 2846.3 L28.35 2817.95 L28.35 2832.12 L85.04 2832.12 L85.04 2817.95 L113.39 2846.3 L85.04 2874.64 L85.04 2860.47 L28.35 2860.47 L28.35 2874.64 L0 2846.3 Z" class="st7"/></g><g id="shape34-79" transform="translate(5048.97,1494.02) rotate(90)"><title>Simple Double Arrow.139</title><path d="M0 2846.3 L28.35 2817.95 L28.35 2832.12 L85.04 2832.12 L85.04 2817.95 L113.39 2846.3 L85.04 2874.64 L85.04 2860.47 L28.35 2860.47 L28.35 2874.64 L0 2846.3 Z" class="st7"/></g><g id="shape36-81" transform="translate(4680.47,2457.79) rotate(90)"><title>Simple Double Arrow.154</title><path d="M0 2846.3 L28.35 2817.95 L28.35 2832.12 L85.04 2832.12 L85.04 2817.95 L113.39 2846.3 L85.04 2874.64 L85.04 2860.47 L28.35 2860.47 L28.35 2874.64 L0 2846.3 Z" class="st7"/></g><g id="shape37-83" transform="translate(1947.56,-1890.86)"><title>Rounded Rectangle.155</title><desc>COMPONENT API</desc><path d="M51.02 2874.64 L459.21 2874.64 A51.0227 51.0227 -180 0 0 510.24 2823.61 L510.24 2585.5 A51.0227 51.0227 -180 0 0 459.21 2534.48 L51.02 2534.48 A51.0227 51.0227 -180 0 0 0 2585.5 L0 2823.61 A51.0227 51.0227 -180 0 0 51.02 2874.64 Z" class="st2"/><text x="127.88" y="2570.88" class="st3">COMPONENT API</text></g><g id="shape38-86" transform="translate(1975.91,-2117.64)"><title>Rectangle.156</title><desc>get_num_components</desc><rect width="453.542" height="56.693" x="0" y="2817.95" class="st4"/><text x="78.34" y="2855.3" class="st5">get_num_components</text></g><g id="shape39-89" transform="translate(1975.91,-2032.6)"><title>Rectangle.157</title><desc>get_all_component</desc><rect width="453.542" height="56.693" x="0" y="2817.95" class="st8"/><text x="100.01" y="2855.3" class="st5">get_all_component</text></g><g id="shape40-92" transform="translate(1975.91,-1947.56)"><title>Rectangle.158</title><desc>get_component</desc><rect width="453.542" height="56.693" x="0" y="2817.95" class="st8"/><text x="123.36" y="2855.3" class="st5">get_component</text></g><g id="shape41-95" transform="translate(1153.86,3603.31) rotate(180)"><title>Simple Double Arrow.160</title><path d="M0 2846.3 L28.35 2817.95 L28.35 2832.12 L85.04 2832.12 L85.04 2817.95 L113.39 2846.3 L85.04 2874.64 L85.04 2860.47 L28.35 2860.47 L28.35 2874.64 L0 2846.3 Z" class="st7"/></g><g id="shape42-97" transform="translate(1890.87,3603.31) rotate(180)"><title>Simple Double Arrow.161</title><path d="M0 2846.3 L28.35 2817.95 L28.35 2832.12 L85.04 2832.12 L85.04 2817.95 L113.39 2846.3 L85.04 2874.64 L85.04 2860.47 L28.35 2860.47 L28.35 2874.64 L0 2846.3 Z" class="st7"/></g><g id="shape43-99" transform="translate(1210.55,-1494.01)"><title>Rounded Rectangle.72</title><desc>MODULE API</desc><path d="M51.02 2874.64 L459.21 2874.64 A51.0227 51.0227 -180 0 0 510.24 2823.61 L510.24 2585.5 A51.0227 51.0227 -180 0 0 459.21 2534.48 L51.02 2534.48 A51.0227 51.0227 -180 0 0 0 2585.5 L0 2823.61 A51.0227 51.0227 -180 0 0 51.02 2874.64 Z" class="st2"/><text x="160.51" y="2570.88" class="st3">MODULE API</text></g><g id="shape44-102" transform="translate(1238.9,-1720.79)"><title>Rectangle.16</title><desc>get_num_modules</desc><rect width="453.542" height="56.693" x="0" y="2817.95" class="st4"/><text x="103.36" y="2855.3" class="st5">get_num_modules</text></g><g id="shape45-105" transform="translate(1238.9,-1635.75)"><title>Rectangle.17</title><desc>get_all_modules</desc><rect width="453.542" height="56.693" x="0" y="2817.95" class="st8"/><text x="117.53" y="2855.3" class="st5">get_all_modules</text></g><g id="shape46-108" transform="translate(1238.9,-1550.71)"><title>Rectangle.18</title><desc>get_module</desc><rect width="453.542" height="56.693" x="0" y="2817.95" class="st8"/><text x="148.38" y="2855.3" class="st5">get_module</text></g><g id="shape47-111" transform="translate(2216.85,-1380.63)"><title>Rectangle.65</title><desc>module_base.py</desc><rect width="297.638" height="56.693" x="0" y="2817.95" class="st8"/><text x="38.74" y="2855.3" class="st5">module_base.py</text></g><g id="shape27-114" transform="translate(1522.36,-530.236)"><title>Rounded Rectangle.128</title><desc>API</desc><path d="M62.36 2874.64 L561.26 2874.64 A62.361 81.6354 -180 0 0 623.62 2792.99 L623.62 2275.96 A62.361 81.6354 -180 0 0 561.26 2194.33 L62.36 2194.33 A62.361 81.6354 -180 0 0 -0 2275.96 L0 2792.99 A62.361 81.6354 -180 0 0 62.36 2874.64 Z" class="st2"/><text x="287.56" y="2230.73" class="st3">API</text></g><g id="shape28-117" transform="translate(1579.05,-1097.17)"><title>Rectangle.129</title><desc>get_name</desc><rect width="510.236" height="56.693" x="0" y="2817.95" class="st4"/><text x="188.4" y="2855.3" class="st5">get_name</text></g><g id="shape29-120" transform="translate(1579.05,-1012.13)"><title>Rectangle.130</title><desc>get_description</desc><rect width="510.236" height="56.693" x="0" y="2817.95" class="st8"/><text x="153.38" y="2855.3" class="st5">get_description</text></g><g id="shape30-123" transform="translate(1579.05,-927.087)"><title>Rectangle.131</title><desc>get_firmware_version</desc><rect width="510.236" height="56.693" x="0" y="2817.95" class="st8"/><text x="111.72" y="2855.3" class="st5">get_firmware_version</text></g><g id="shape35-126" transform="translate(1579.05,-671.969)"><title>Rectangle.143</title><desc>install_firmware</desc><rect width="510.236" height="56.693" x="0" y="2817.95" class="st8"/><text x="150.92" y="2855.3" class="st5">install_firmware</text></g><g id="shape50-129" transform="translate(1579.06,-586.929)"><title>Sheet.50</title><desc>install_firmware</desc><rect width="510.236" height="56.693" x="0" y="2817.95" class="st8"/><text x="143.39" y="2855.3" class="st5">update_firmware</text></g><g id="shape54-132" transform="translate(1579.06,-842.048)"><title>Rectangle.54</title><desc>install_firmware</desc><rect width="510.236" height="56.693" x="0" y="2817.95" class="st8"/><text x="44.17" y="2855.3" class="st5">get_available_firmware_version</text></g><g id="shape55-135" transform="translate(1579.06,-757.008)"><title>Sheet.55</title><desc>install_firmware</desc><rect width="510.236" height="56.693" x="0" y="2817.95" class="st8"/><text x="34.15" y="2855.3" class="st5">get_firmware_update_notification</text></g><g id="shape31-138" transform="translate(2216.85,-416.85)"><title>Rectangle.132</title><desc>component_base.py</desc><rect width="297.638" height="56.693" x="0" y="2817.95" class="st8"/><text x="13.72" y="2855.3" class="st5">component_base.py</text></g></g></svg>