<svg xmlns="http://www.w3.org/2000/svg" xmlns:ev="http://www.w3.org/2001/xml-events" xmlns:xlink="http://www.w3.org/1999/xlink" width="1353.274" height="2201.51" class="st16" color-interpolation-filters="sRGB" viewBox="0 0 1014.95 1651.13" xml:space="preserve"><title>fwutil flows</title><style type="text/css">.st1,.st2{stroke:#000;stroke-linecap:round;stroke-linejoin:round;stroke-width:1}.st1{fill:#5b9bd5}.st2{stroke-dasharray:7,5}.st3{fill:#fff;font-family:Segoe UI;font-size:1.00001em;font-weight:700}.st4{font-size:1em}.st5{fill:#af5200;stroke-linecap:round;stroke-linejoin:round;stroke-width:.5}.st5,.st6,.st7{stroke:#a54d00}.st6{marker-end:url(#mrkr4-49);stroke-linecap:round;stroke-linejoin:round;stroke-width:1}.st7{fill:#a54d00;fill-opacity:1;stroke-opacity:1;stroke-width:.23584905660377}.st8{fill:#fff;stroke:none;stroke-linecap:butt}.st9{fill:#803a00;font-family:Segoe UI;font-size:1.00001em;font-weight:700}.st10{marker-end:url(#mrkr3-57);stroke:#a54d00;stroke-dasharray:7,5;stroke-linecap:round;stroke-linejoin:round;stroke-width:1}.st11{fill:#fff;stroke:none;stroke-linecap:butt;stroke-width:7.2}.st12,.st13{stroke:#b43500;stroke-linecap:round;stroke-linejoin:round;stroke-width:1}.st12{fill:#b43500;fill-opacity:0}.st13{fill:#fff}.st14,.st15{fill:#b43500;font-family:Segoe UI;font-size:1.00001em;font-weight:700}.st15{fill:#ac770d}.st16{fill:none;fill-rule:evenodd;font-size:12px;overflow:visible;stroke-linecap:square;stroke-miterlimit:3}</style><defs id="Markers"><g id="lend4"><path d="M 2 1 L 0 0 L 2 -1 L 2 1" style="stroke:none"/></g><marker id="mrkr4-49" class="st7" markerUnits="strokeWidth" orient="auto" overflow="visible" refX="-8.48"><use transform="scale(-4.24,-4.24)" xlink:href="#lend4"/></marker><g id="lend3"><path d="M 2 1 L 0 0 L 2 -1" style="stroke-linecap:round;stroke-linejoin:round;fill:none"/></g><marker id="mrkr3-57" class="st7" markerUnits="strokeWidth" orient="auto" overflow="visible"><use transform="scale(-4.24,-4.24)" xlink:href="#lend3"/></marker></defs><g><title>Page-4</title><g id="group1-1" transform="translate(25.5866,-1586.57)"><title>Actor lifeline.115</title><desc>FW Utility</desc><g id="shape2-2" transform="translate(59.5276,-8.50394)"><title>Sheet.2</title><rect width="51.024" height="25.512" x="0" y="1625.62" class="st1"/></g><g id="shape3-4" transform="translate(76.5354,-46.063)"><title>Sheet.3</title><path d="M8.5 1651.13 a6.99441E-15 0 0 1 1 -1.42109E-14 0 a6.99441E-15 0 0 1 1 1.42109E-14 0 Z" class="st1"/></g><g id="shape4-6" transform="translate(56.6929,1568.57)"><title>Sheet.4</title></g><g id="shape5-8" transform="translate(1736.17,1651.13) rotate(90)"><title>Sheet.5</title><path d="M0 1651.13 L1544.88 1651.13" class="st2"/></g><g id="shape1-11"><rect width="170.079" height="42.52" x="0" y="1608.61" class="st1"/><text x="56.88" y="1633.47" class="st3">FW Utility</text></g></g><g id="group6-14" transform="translate(224.012,-1586.57)"><title>Object lifeline.120</title><desc>platform : PlatformBase&lt;Object&gt;</desc><g id="shape7-15" transform="translate(59.5276,-8.50394)"><title>Sheet.7</title><rect width="51.024" height="25.512" x="0" y="1625.62" class="st1"/></g><g id="shape8-17" transform="translate(76.5354,-46.063)"><title>Sheet.8</title><path d="M8.5 1651.13 a0 0 0 1 1 0 0 a0 0 0 1 1 0 0 Z" class="st1"/></g><g id="shape9-19" transform="translate(56.6929,1568.57)"><title>Sheet.9</title></g><g id="shape10-21" transform="translate(1736.17,1651.13) rotate(90)"><title>Sheet.10</title><path d="M0 1651.13 L1544.88 1651.13" class="st2"/></g><g id="shape6-24"><rect width="170.079" height="42.52" x="0" y="1608.61" class="st1"/><text x="56.92" y="1626.27" class="st3">platform : <tspan x="20.35" class="st4" dy="1.2em">PlatformBase&lt;Object&gt;</tspan></text></g></g><g id="group11-28" transform="translate(422.437,-1586.57)"><title>Object lifeline.125</title><desc>chassis : ChassisBase&lt;DeviceBase&gt;</desc><g id="shape12-29" transform="translate(59.5276,-8.50394)"><title>Sheet.12</title><rect width="51.024" height="25.512" x="0" y="1625.62" class="st1"/></g><g id="shape13-31" transform="translate(76.5354,-46.063)"><title>Sheet.13</title><path d="M8.5 1651.13 a0 0 0 1 1 0 0 a0 0 0 1 1 0 0 Z" class="st1"/></g><g id="shape14-33" transform="translate(56.6929,1568.57)"><title>Sheet.14</title></g><g id="shape15-35" transform="translate(1736.17,1651.13) rotate(90)"><title>Sheet.15</title><path d="M0 1651.13 L1544.88 1651.13" class="st2"/></g><g id="shape11-38"><rect width="170.079" height="42.52" x="0" y="1608.61" class="st1"/><text x="62.41" y="1626.27" class="st3">chassis : <tspan x="11.67" class="st4" dy="1.2em">ChassisBase&lt;DeviceBase&gt;</tspan></text></g></g><g id="shape16-42" transform="translate(-1337.83,121.256) rotate(-90)"><title>Activation.131</title><rect width="28.346" height="8.504" x="0" y="1642.63" class="st5"/></g><g id="shape17-44" transform="translate(114.878,-1551.14)"><title>Message.133</title><desc>&lt;platform&gt;.get_chassis()</desc><path d="M0 1644.05 L181.44 1644.05" class="st6"/><rect width="141.025" height="14.4" x="24.448" y="1636.85" class="st8"/><text x="24.45" y="1647.65" class="st9">&lt;platform&gt;.get_chassis()</text></g><g id="shape18-52" transform="translate(304.799,-1522.79)"><title>Return Message.134</title><desc>return &lt;chassis&gt;</desc><path d="M0 1644.05 L-189.92 1644.05" class="st10"/><rect width="94.202" height="14.4" x="-142.061" y="1636.85" class="st11"/><text x="-142.06" y="1647.65" class="st9">return &lt;chassis&gt;</text></g><g id="group19-60" transform="translate(620.862,-1586.57)"><title>Object lifeline.138</title><desc>module : ModuleBase&lt;DeviceBase&gt;</desc><g id="shape20-61" transform="translate(59.5276,-8.50394)"><title>Sheet.20</title><rect width="51.024" height="25.512" x="0" y="1625.62" class="st1"/></g><g id="shape21-63" transform="translate(76.5354,-46.063)"><title>Sheet.21</title><path d="M8.5 1651.13 a0 0 0 1 1 0 0 a0 0 0 1 1 0 0 Z" class="st1"/></g><g id="shape22-65" transform="translate(56.6929,1568.57)"><title>Sheet.22</title></g><g id="shape23-67" transform="translate(1736.17,1651.13) rotate(90)"><title>Sheet.23</title><path d="M0 1651.13 L1544.88 1651.13" class="st2"/></g><g id="shape19-70"><rect width="170.079" height="42.52" x="0" y="1608.61" class="st1"/><text x="60.3" y="1626.27" class="st3">module : <tspan x="10.17" class="st4" dy="1.2em">ModuleBase&lt;DeviceBase&gt;</tspan></text></g></g><g id="shape24-74" transform="translate(114.878,-1494.45)"><title>Message.162</title><desc>&lt;chassis&gt;.get_name()</desc><path d="M0 1644.05 L379.87 1644.05" class="st6"/><rect width="122.544" height="14.4" x="132.901" y="1636.85" class="st11"/><text x="132.9" y="1647.65" class="st9">&lt;chassis&gt;.get_name()</text></g><g id="shape25-81" transform="translate(503.224,-1466.1)"><title>Return Message.164</title><desc>return &lt;chassis_name&gt;</desc><path d="M0 1644.05 L-388.35 1644.05" class="st10"/><rect width="130.384" height="14.4" x="-259.365" y="1636.85" class="st11"/><text x="-259.37" y="1647.65" class="st9">return &lt;chassis_name&gt;</text></g><g id="shape26-88" transform="translate(-1536.26,121.256) rotate(-90)"><title>Activation.168</title><rect width="28.346" height="8.504" x="0" y="1642.63" class="st5"/></g><g id="shape27-90" transform="translate(-1536.26,177.949) rotate(-90)"><title>Activation.169</title><rect width="28.346" height="8.504" x="0" y="1642.63" class="st5"/></g><g id="shape28-92" transform="translate(-1139.41,177.949) rotate(-90)"><title>Activation.170</title><rect width="28.346" height="8.504" x="0" y="1642.63" class="st5"/></g><g id="shape29-94" transform="translate(-1536.26,284.248) rotate(-90)"><title>Activation.255</title><rect width="28.346" height="8.504" x="0" y="1642.63" class="st5"/></g><g id="shape30-96" transform="translate(-1139.41,284.248) rotate(-90)"><title>Activation.256</title><rect width="28.346" height="8.504" x="0" y="1642.63" class="st5"/></g><g id="shape31-98" transform="translate(114.878,-1388.15)"><title>Message.257</title><desc>&lt;chassis&gt;.get_all_modules()</desc><path d="M0 1644.05 L379.87 1644.05" class="st6"/><rect width="157.8" height="14.4" x="115.273" y="1636.85" class="st11"/><text x="115.27" y="1647.65" class="st9">&lt;chassis&gt;.get_all_modules()</text></g><g id="shape32-105" transform="translate(503.224,-1359.8)"><title>Return Message.258</title><desc>return &lt;module_list&gt;</desc><path d="M0 1644.05 L-388.35 1644.05" class="st10"/><rect width="120.183" height="14.4" x="-254.265" y="1636.85" class="st11"/><text x="-254.26" y="1647.65" class="st9">return &lt;module_list&gt;</text></g><g id="group33-112" transform="translate(18.5,-204.682)"><title>Optional fragment.737</title><g id="shape33-113"><rect width="977.953" height="1240.16" x="0" y="410.977" class="st12"/></g><g id="shape34-115" transform="translate(0,-1217.75)"><title>Sheet.34</title><desc>opt</desc><path d="M0 1651.13 L88.91 1651.13 L96 1644.05 L96 1628.73 L0 1628.73 L0 1651.13 Z" class="st13"/><text x="4" y="1643.53" class="st14">opt</text></g><g id="shape35-118" transform="translate(0,-1195.35)"><title>Sheet.35</title><desc>[ if &lt;chassis_name&gt; is found ]</desc><text x="4" y="1643.53" class="st15">[ if &lt;chassis_name&gt; is found ]</text></g></g><g id="group36-120" transform="translate(32.6732,-353.501)"><title>Loop fragment.946</title><g id="shape36-121"><rect width="949.606" height="985.039" x="0" y="666.095" class="st12"/></g><g id="shape37-123" transform="translate(0,-962.636)"><title>Sheet.37</title><desc>loop</desc><path d="M0 1651.13 L88.91 1651.13 L96 1644.05 L96 1628.73 L0 1628.73 L0 1651.13 Z" class="st13"/><text x="4" y="1643.53" class="st14">loop</text></g><g id="shape38-126" transform="translate(0,-940.232)"><title>Sheet.38</title><desc>[ for module in &lt;module_list&gt; ]</desc><text x="4" y="1643.53" class="st15">[ for module in &lt;module_list&gt; ]</text></g></g><g id="shape39-128" transform="translate(114.878,-1281.85)"><title>Message.952</title><desc>&lt;module&gt;.get_name()</desc><path d="M0 1644.05 L578.29 1644.05" class="st6"/><rect width="126.775" height="14.4" x="229.998" y="1636.85" class="st11"/><text x="230" y="1647.65" class="st9">&lt;module&gt;.get_name()</text></g><g id="shape40-135" transform="translate(701.65,-1253.5)"><title>Return Message.953</title><desc>return &lt;module_name&gt;</desc><path d="M0 1644.05 L-586.77 1644.05" class="st10"/><rect width="134.615" height="14.4" x="-360.693" y="1636.85" class="st11"/><text x="-360.69" y="1647.65" class="st9">return &lt;module_name&gt;</text></g><g id="shape41-142" transform="translate(-1536.26,390.547) rotate(-90)"><title>Activation.954</title><rect width="28.346" height="8.504" x="0" y="1642.63" class="st5"/></g><g id="shape42-144" transform="translate(-940.981,390.547) rotate(-90)"><title>Activation.955</title><rect width="28.346" height="8.504" x="0" y="1642.63" class="st5"/></g><g id="group43-146" transform="translate(46.8465,-367.674)"><title>Optional fragment.956</title><g id="shape43-147"><rect width="921.26" height="864.567" x="0" y="786.568" class="st12"/></g><g id="shape44-149" transform="translate(0,-842.163)"><title>Sheet.44</title><desc>opt</desc><path d="M0 1651.13 L88.91 1651.13 L96 1644.05 L96 1628.73 L0 1628.73 L0 1651.13 Z" class="st13"/><text x="4" y="1643.53" class="st14">opt</text></g><g id="shape45-152" transform="translate(0,-819.76)"><title>Sheet.45</title><desc>[ if &lt;module_name&gt; is found ]</desc><text x="4" y="1643.53" class="st15">[ if &lt;module_name&gt; is found ]</text></g></g><g id="shape46-154" transform="translate(-1536.26,496.846) rotate(-90)"><title>Activation.961</title><rect width="28.346" height="8.504" x="0" y="1642.63" class="st5"/></g><g id="shape47-156" transform="translate(114.878,-1175.55)"><title>Message.963</title><desc>&lt;module&gt;.get_all_components()</desc><path d="M0 1644.05 L578.29 1644.05" class="st6"/><rect width="183.658" height="14.4" x="201.557" y="1636.85" class="st8"/><text x="201.56" y="1647.65" class="st9">&lt;module&gt;.get_all_components()</text></g><g id="shape48-163" transform="translate(701.65,-1147.2)"><title>Return Message.964</title><desc>return &lt;component_list&gt;</desc><path d="M0 1644.05 L-586.77 1644.05" class="st10"/><rect width="141.81" height="14.4" x="-364.291" y="1636.85" class="st11"/><text x="-364.29" y="1647.65" class="st9">return &lt;component_list&gt;</text></g><g id="group49-170" transform="translate(89.3661,-920.43)"><title>Optional fragment.965</title><g id="shape49-171"><rect width="836.221" height="106.299" x="0" y="1544.84" class="st12"/></g><g id="shape50-173" transform="translate(0,-83.8955)"><title>Sheet.50</title><desc>opt</desc><path d="M0 1651.13 L88.91 1651.13 L96 1644.05 L96 1628.73 L0 1628.73 L0 1651.13 Z" class="st13"/><text x="4" y="1643.53" class="st14">opt</text></g><g id="shape51-176" transform="translate(0,-61.4918)"><title>Sheet.51</title><desc>[ if &lt;image_path&gt; not exists ] ]</desc><text x="4" y="1643.53" class="st15">[ if &lt;image_path&gt; not exists ] ]</text></g></g><g id="shape52-178" transform="translate(-1536.26,702.358) rotate(-90)"><title>Activation.968</title><rect width="28.346" height="8.504" x="0" y="1642.63" class="st5"/></g><g id="shape53-180" transform="translate(107.791,-977.123)"><title>Self Message.969</title><desc>handle_error()</desc><path d="M7.09 1651.13 L25.09 1651.13 L25.09 1679.48 L15.57 1679.48" class="st6"/><rect width="80.269" height="14.4" x="21.803" y="1658.11" class="st11"/><text x="21.8" y="1668.91" class="st9">handle_error()</text></g><g id="shape54-187" transform="translate(-1536.26,1035.43) rotate(-90)"><title>Activation.970</title><rect width="85.039" height="8.504" x="0" y="1642.63" class="st5"/></g><g id="shape55-189" transform="translate(114.878,-693.658)"><title>Message.971</title><desc>&lt;component&gt;.install_firmware(&lt;image_path&gt;)</desc><path d="M0 1644.05 L776.72 1644.05" class="st6"/><rect width="266.101" height="14.4" x="259.548" y="1636.85" class="st11"/><text x="259.55" y="1647.65" class="st9">&lt;component&gt;.install_firmware(&lt;image_path&gt;)</text></g><g id="shape56-196" transform="translate(900.075,-622.792)"><title>Return Message.973</title><desc>return &lt;result&gt;</desc><path d="M0 1658.22 L-785.2 1658.22" class="st10"/><rect width="87.399" height="14.4" x="-436.298" y="1651.02" class="st8"/><text x="-436.3" y="1661.82" class="st9">return &lt;result&gt;</text></g><g id="shape57-203" transform="translate(-1536.26,1092.12) rotate(-90)"><title>Activation.974</title><rect width="28.346" height="8.504" x="0" y="1642.63" class="st5"/></g><g id="shape58-205" transform="translate(121.965,-587.359)"><title>Self Message.975</title><desc>show_result(&lt;chassis_name&gt;,&lt;module_name&gt;,&lt;component_name&gt;,&lt;im...</desc><path d="M-7.09 1651.13 L10.91 1651.13 L10.91 1679.48 L1.39 1679.48" class="st6"/><rect width="525.135" height="14.4" x="6.724" y="1658.11" class="st11"/><text x="6.72" y="1668.91" class="st9">show_result(&lt;chassis_name&gt;,&lt;module_name&gt;,&lt;component_name&gt;,&lt;image_path&gt;,&lt;result&gt;)</text></g><g id="group59-212" transform="translate(75.1929,-70.036)"><title>Optional fragment.980</title><g id="shape59-213"><rect width="850.394" height="106.299" x="0" y="1544.84" class="st12"/></g><g id="shape60-215" transform="translate(0,-83.8955)"><title>Sheet.60</title><desc>opt</desc><path d="M0 1651.13 L88.91 1651.13 L96 1644.05 L96 1628.73 L0 1628.73 L0 1651.13 Z" class="st13"/><text x="4" y="1643.53" class="st14">opt</text></g><g id="shape61-218" transform="translate(0,-61.4918)"><title>Sheet.61</title><desc>[ if &lt;chassis_name&gt; is not found ]</desc><text x="4" y="1643.53" class="st15">[ if &lt;chassis_name&gt; is not found ]</text></g></g><g id="shape62-220" transform="translate(-1536.26,1553.89) rotate(-90)"><title>Activation.983</title><rect width="28.346" height="8.504" x="0" y="1642.63" class="st5"/></g><g id="shape63-222" transform="translate(107.791,-125.595)"><title>Self Message.984</title><desc>handle_error()</desc><path d="M7.09 1651.13 L25.09 1651.13 L25.09 1679.48 L15.57 1679.48" class="st6"/><rect width="80.269" height="14.4" x="21.803" y="1658.11" class="st11"/><text x="21.8" y="1668.91" class="st9">handle_error()</text></g><g id="group64-229" transform="translate(89.3662,-217.721)"><title>Optional fragment.985</title><g id="shape64-230"><rect width="836.221" height="107.433" x="0" y="1543.7" class="st12"/></g><g id="shape65-232" transform="translate(0,-85.0295)"><title>Sheet.65</title><desc>opt</desc><path d="M0 1651.13 L88.91 1651.13 L96 1644.05 L96 1628.73 L0 1628.73 L0 1651.13 Z" class="st13"/><text x="4" y="1643.53" class="st14">opt</text></g><g id="shape66-235" transform="translate(0,-62.6257)"><title>Sheet.66</title><desc>[ if &lt;module_name&gt; is not found ]</desc><text x="4" y="1643.53" class="st15">[ if &lt;module_name&gt; is not found ]</text></g></g><g id="shape67-237" transform="translate(-1536.26,1405.07) rotate(-90)"><title>Activation.988</title><rect width="28.346" height="8.504" x="0" y="1642.63" class="st5"/></g><g id="shape68-239" transform="translate(121.965,-274.414)"><title>Self Message.989</title><desc>handle_error()</desc><path d="M-7.09 1651.13 L10.91 1651.13 L10.91 1679.48 L1.39 1679.48" class="st6"/><rect width="80.269" height="14.4" x="7.63" y="1658.11" class="st11"/><text x="7.63" y="1668.91" class="st9">handle_error()</text></g><g id="group69-246" transform="translate(819.287,-1586.57)"><title>Object lifeline.1030</title><desc>сomponent : ComponentBase&lt;Object&gt;</desc><g id="shape70-247" transform="translate(59.5276,-8.50394)"><title>Sheet.70</title><rect width="51.024" height="25.512" x="0" y="1625.62" class="st1"/></g><g id="shape71-249" transform="translate(76.5354,-46.063)"><title>Sheet.71</title><path d="M8.5 1651.13 a0 0 0 1 1 0 0 a0 0 0 1 1 0 0 Z" class="st1"/></g><g id="shape72-251" transform="translate(56.6929,1568.57)"><title>Sheet.72</title></g><g id="shape73-253" transform="translate(1736.17,1651.13) rotate(90)"><title>Sheet.73</title><path d="M0 1651.13 L1544.88 1651.13" class="st2"/></g><g id="shape69-256"><rect width="170.079" height="42.52" x="0" y="1608.61" class="st1"/><text x="49.48" y="1626.27" class="st3">сomponent<tspan class="st4"> </tspan><tspan class="st4">: </tspan><tspan x="12.02" class="st4" dy="1.2em">ComponentBase</tspan><tspan class="st4">&lt;Object&gt;</tspan></text></g></g><g id="group74-263" transform="translate(61.0197,-516.493)"><title>Loop fragment.1039</title><g id="shape74-264"><rect width="892.913" height="609.449" x="0" y="1041.69" class="st12"/></g><g id="shape75-266" transform="translate(0,-587.045)"><title>Sheet.75</title><desc>loop</desc><path d="M0 1651.13 L88.91 1651.13 L96 1644.05 L96 1628.73 L0 1628.73 L0 1651.13 Z" class="st13"/><text x="4" y="1643.53" class="st14">loop</text></g><g id="shape76-269" transform="translate(0,-564.641)"><title>Sheet.76</title><desc>[ for component in &lt;component_list&gt; ]</desc><text x="4" y="1643.53" class="st15">[ for component in &lt;component_list&gt; ]</text></g></g><g id="group77-271" transform="translate(89.3662,-381.847)"><title>Optional fragment.1044</title><g id="shape77-272"><rect width="836.221" height="106.299" x="0" y="1544.84" class="st12"/></g><g id="shape78-274" transform="translate(0,-83.8955)"><title>Sheet.78</title><desc>opt</desc><path d="M0 1651.13 L88.91 1651.13 L96 1644.05 L96 1628.73 L0 1628.73 L0 1651.13 Z" class="st13"/><text x="4" y="1643.53" class="st14">opt</text></g><g id="shape79-277" transform="translate(0,-61.4918)"><title>Sheet.79</title><desc>[ if &lt;component_name&gt; is not found ]</desc><text x="4" y="1643.53" class="st15">[ if &lt;component_name&gt; is not found ]</text></g></g><g id="shape80-279" transform="translate(-1536.26,1242.07) rotate(-90)"><title>Activation.1047</title><rect width="28.346" height="8.504" x="0" y="1642.63" class="st5"/></g><g id="shape81-281" transform="translate(121.965,-437.406)"><title>Self Message.1048</title><desc>handle_error()</desc><path d="M-7.09 1651.13 L10.91 1651.13 L10.91 1679.48 L1.39 1679.48" class="st6"/><rect width="80.269" height="14.4" x="7.63" y="1658.11" class="st11"/><text x="7.63" y="1668.91" class="st9">handle_error()</text></g><g id="shape82-288" transform="translate(-742.556,1035.43) rotate(-90)"><title>Activation.972</title><rect width="85.039" height="8.504" x="0" y="1642.63" class="st5"/></g><g id="shape83-290" transform="translate(-940.981,496.846) rotate(-90)"><title>Activation.962</title><rect width="28.346" height="8.504" x="0" y="1642.63" class="st5"/></g><g id="group84-292" transform="translate(75.1929,-530.666)"><title>Optional fragment.1051</title><g id="shape84-293"><rect width="864.567" height="545.669" x="0" y="1105.47" class="st12"/></g><g id="shape85-295" transform="translate(0,-523.266)"><title>Sheet.85</title><desc>opt</desc><path d="M0 1651.13 L88.91 1651.13 L96 1644.05 L96 1628.73 L0 1628.73 L0 1651.13 Z" class="st13"/><text x="4" y="1643.53" class="st14">opt</text></g><g id="shape86-298" transform="translate(0,-500.862)"><title>Sheet.86</title><desc>[ if &lt;component_name&gt; is found ]</desc><text x="4" y="1643.53" class="st15">[ if &lt;component_name&gt; is found ]</text></g></g><g id="shape87-300" transform="translate(-1536.26,787.398) rotate(-90)"><title>Activation.1257</title><rect width="28.346" height="8.504" x="0" y="1642.63" class="st5"/></g><g id="shape88-302" transform="translate(114.878,-899.17)"><title>Message.1258</title><desc>&lt;component&gt;.get_firmware_update_notification(&lt;image_path&gt;)</desc><path d="M0 1658.22 L578.29 1658.22" class="st6"/><rect width="366.087" height="14.4" x="110.342" y="1651.02" class="st11"/><text x="110.34" y="1661.82" class="st9">&lt;component&gt;.get_firmware_update_notification(&lt;image_path&gt;)</text></g><g id="shape89-309" transform="translate(701.65,-856.65)"><title>Return Message.1259</title><desc>return &lt;update_notification&gt;</desc><path d="M0 1644.05 L-586.77 1644.05" class="st10"/><rect width="165.822" height="14.4" x="-376.297" y="1636.85" class="st11"/><text x="-376.3" y="1647.65" class="st9">return &lt;update_notification&gt;</text></g><g id="shape90-316" transform="translate(-940.981,787.406) rotate(-90.0003)"><title>Activation.1260</title><rect width="28.346" height="8.504" x="0" y="1642.63" class="st5"/></g><g id="group91-318" transform="translate(89.3661,-729.091)"><title>Optional fragment.1261</title><g id="shape91-319"><rect width="836.221" height="106.299" x="0" y="1544.84" class="st12"/></g><g id="shape92-321" transform="translate(0,-83.8955)"><title>Sheet.92</title><desc>opt</desc><path d="M0 1651.13 L88.91 1651.13 L96 1644.05 L96 1628.73 L0 1628.73 L0 1651.13 Z" class="st13"/><text x="4" y="1643.53" class="st14">opt</text></g><g id="shape93-324" transform="translate(0,-61.4918)"><title>Sheet.93</title><desc>[ if &lt;update_notification&gt; not empty ] ]</desc><text x="4" y="1643.53" class="st15">[ if<tspan class="st4"> </tspan>&lt;update_notification&gt; not empty ] ]</text></g></g><g id="shape94-327" transform="translate(-1536.26,893.697) rotate(-90)"><title>Activation.1264</title><rect width="28.346" height="8.504" x="0" y="1642.63" class="st5"/></g><g id="shape95-329" transform="translate(107.791,-785.784)"><title>Self Message.1265</title><desc>show_notification(&lt;update_notification&gt;)</desc><path d="M7.09 1651.13 L25.09 1651.13 L25.09 1679.48 L15.57 1679.48" class="st6"/><rect width="236.106" height="14.4" x="22.545" y="1657.82" class="st11"/><text x="22.55" y="1668.62" class="st9">show_notification(&lt;update_notification&gt;)</text></g></g></svg>