<svg xmlns="http://www.w3.org/2000/svg" xmlns:ev="http://www.w3.org/2001/xml-events" xmlns:xlink="http://www.w3.org/1999/xlink" width="1069.805" height="1795.21" class="st19" color-interpolation-filters="sRGB" viewBox="0 0 802.354 1346.41" xml:space="preserve"><title>fwutil flows</title><style type="text/css">.st1,.st2{stroke:#000;stroke-linecap:round;stroke-linejoin:round;stroke-width:1}.st1{fill:#5b9bd5}.st2{stroke-dasharray:7,5}.st3{fill:#fff;font-family:Segoe UI;font-size:1.00001em;font-weight:700}.st4{font-size:1em}.st5{fill:#af5200;stroke-linecap:round;stroke-linejoin:round;stroke-width:.5}.st5,.st6,.st7{stroke:#a54d00}.st6{marker-end:url(#mrkr4-49);stroke-linecap:round;stroke-linejoin:round;stroke-width:1}.st7{fill:#a54d00;fill-opacity:1;stroke-opacity:1;stroke-width:.23584905660377}.st8{fill:#fff;stroke:none;stroke-linecap:butt}.st9{fill:#803a00;font-family:Segoe UI;font-size:1.00001em;font-weight:700}.st10{marker-end:url(#mrkr3-57);stroke:#a54d00;stroke-dasharray:7,5;stroke-linecap:round;stroke-linejoin:round;stroke-width:1}.st11{fill:#fff;stroke:none;stroke-linecap:butt;stroke-width:7.2}.st12,.st13{stroke:#b43500;stroke-linecap:round;stroke-linejoin:round;stroke-width:1}.st12{fill:#b43500;fill-opacity:0}.st13{fill:#fff}.st14,.st15{fill:#b43500;font-family:Segoe UI;font-size:1.00001em;font-weight:700}.st15{fill:#ac770d}.st16,.st17{stroke:#a54d00}.st16{marker-end:url(#mrkr4-122);stroke-linecap:round;stroke-linejoin:round;stroke-width:.5}.st17{fill:#a54d00;fill-opacity:1;stroke-opacity:1;stroke-width:.13368983957219}.st18{fill:#813b00;font-size:1em}.st19{fill:none;fill-rule:evenodd;font-size:12px;overflow:visible;stroke-linecap:square;stroke-miterlimit:3}</style><defs id="Markers"><g id="lend4"><path d="M 2 1 L 0 0 L 2 -1 L 2 1" style="stroke:none"/></g><marker id="mrkr4-49" class="st7" markerUnits="strokeWidth" orient="auto" overflow="visible" refX="-8.48"><use transform="scale(-4.24,-4.24)" xlink:href="#lend4"/></marker><g id="lend3"><path d="M 2 1 L 0 0 L 2 -1" style="stroke-linecap:round;stroke-linejoin:round;fill:none"/></g><marker id="mrkr3-57" class="st7" markerUnits="strokeWidth" orient="auto" overflow="visible"><use transform="scale(-4.24,-4.24)" xlink:href="#lend3"/></marker><marker id="mrkr4-122" class="st17" markerUnits="strokeWidth" orient="auto" overflow="visible" refX="-14.96"><use transform="scale(-7.48,-7.48)" xlink:href="#lend4"/></marker></defs><g><title>Page-4</title><g id="group1-1" transform="translate(18.5,-1281.85)"><title>Actor lifeline.474</title><desc>FW Utility</desc><g id="shape2-2" transform="translate(59.5276,-8.50394)"><title>Sheet.2</title><rect width="51.024" height="25.512" x="0" y="1320.9" class="st1"/></g><g id="shape3-4" transform="translate(76.5354,-46.063)"><title>Sheet.3</title><path d="M8.5 1346.41 a6.99441E-15 0 0 1 1 -1.42109E-14 0 a6.99441E-15 0 0 1 1 1.42109E-14 0 Z" class="st1"/></g><g id="shape4-6" transform="translate(56.6929,1263.85)"><title>Sheet.4</title></g><g id="shape5-8" transform="translate(1431.45,1346.41) rotate(90)"><title>Sheet.5</title><path d="M0 1346.41 L1240.16 1346.41" class="st2"/></g><g id="shape1-11"><rect width="170.079" height="42.52" x="0" y="1303.89" class="st1"/><text x="56.88" y="1328.75" class="st3">FW Utility</text></g></g><g id="group6-14" transform="translate(216.925,-1281.85)"><title>Object lifeline.479</title><desc>platform : PlatformBase&lt;Object&gt;</desc><g id="shape7-15" transform="translate(59.5276,-8.50394)"><title>Sheet.7</title><rect width="51.024" height="25.512" x="0" y="1320.9" class="st1"/></g><g id="shape8-17" transform="translate(76.5354,-46.063)"><title>Sheet.8</title><path d="M8.5 1346.41 a0 0 0 1 1 0 0 a0 0 0 1 1 0 0 Z" class="st1"/></g><g id="shape9-19" transform="translate(56.6929,1263.85)"><title>Sheet.9</title></g><g id="shape10-21" transform="translate(1431.45,1346.41) rotate(90)"><title>Sheet.10</title><path d="M0 1346.41 L1240.16 1346.41" class="st2"/></g><g id="shape6-24"><rect width="170.079" height="42.52" x="0" y="1303.89" class="st1"/><text x="56.92" y="1321.55" class="st3">platform :<tspan x="20.35" class="st4" dy="1.2em">PlatformBase&lt;Object&gt;</tspan></text></g></g><g id="group11-28" transform="translate(415.35,-1281.85)"><title>Object lifeline.484</title><desc>chassis : ChassisBase&lt;DeviceBase&gt;</desc><g id="shape12-29" transform="translate(59.5276,-8.50394)"><title>Sheet.12</title><rect width="51.024" height="25.512" x="0" y="1320.9" class="st1"/></g><g id="shape13-31" transform="translate(76.5354,-46.063)"><title>Sheet.13</title><path d="M8.5 1346.41 a0 0 0 1 1 0 0 a0 0 0 1 1 0 0 Z" class="st1"/></g><g id="shape14-33" transform="translate(56.6929,1263.85)"><title>Sheet.14</title></g><g id="shape15-35" transform="translate(1431.45,1346.41) rotate(90)"><title>Sheet.15</title><path d="M0 1346.41 L1240.16 1346.41" class="st2"/></g><g id="shape11-38"><rect width="170.079" height="42.52" x="0" y="1303.89" class="st1"/><text x="62.41" y="1321.55" class="st3">chassis :<tspan x="11.67" class="st4" dy="1.2em">ChassisBase&lt;DeviceBase&gt;</tspan></text></g></g><g id="shape16-42" transform="translate(-1040.19,121.256) rotate(-90)"><title>Activation.489</title><rect width="28.346" height="8.504" x="0" y="1337.91" class="st5"/></g><g id="shape17-44" transform="translate(107.791,-1246.41)"><title>Message.490</title><desc>&lt;platform&gt;.get_chassis()</desc><path d="M0 1339.32 L181.44 1339.32" class="st6"/><rect width="141.025" height="14.4" x="24.448" y="1332.12" class="st8"/><text x="24.45" y="1342.92" class="st9">&lt;platform&gt;.get_chassis()</text></g><g id="shape18-52" transform="translate(297.713,-1218.07)"><title>Return Message.491</title><desc>return &lt;chassis&gt;</desc><path d="M0 1339.32 L-189.92 1339.32" class="st10"/><rect width="94.202" height="14.4" x="-142.061" y="1332.12" class="st8"/><text x="-142.06" y="1342.92" class="st9">return &lt;chassis&gt;</text></g><g id="shape19-60" transform="translate(107.791,-1189.72)"><title>Message.508</title><desc>&lt;chassis&gt;.get_name()</desc><path d="M0 1339.32 L379.87 1339.32" class="st6"/><rect width="122.544" height="14.4" x="132.901" y="1332.12" class="st11"/><text x="132.9" y="1342.92" class="st9">&lt;chassis&gt;.get_name()</text></g><g id="shape20-67" transform="translate(496.138,-1161.37)"><title>Return Message.509</title><desc>return &lt;chassis_name&gt;</desc><path d="M0 1339.32 L-388.35 1339.32" class="st10"/><rect width="130.384" height="14.4" x="-259.365" y="1332.12" class="st11"/><text x="-259.36" y="1342.92" class="st9">return &lt;chassis_name&gt;</text></g><g id="shape21-74" transform="translate(-1238.62,121.256) rotate(-90)"><title>Activation.510</title><rect width="28.346" height="8.504" x="0" y="1337.91" class="st5"/></g><g id="shape22-76" transform="translate(-1238.62,177.949) rotate(-90)"><title>Activation.511</title><rect width="28.346" height="8.504" x="0" y="1337.91" class="st5"/></g><g id="shape23-78" transform="translate(-841.768,177.949) rotate(-90)"><title>Activation.512</title><rect width="28.346" height="8.504" x="0" y="1337.91" class="st5"/></g><g id="group24-80" transform="translate(39.4764,-204.682)"><title>Optional fragment.541</title><g id="shape24-81"><rect width="723.118" height="935.433" x="0" y="410.977" class="st12"/></g><g id="shape25-83" transform="translate(0,-913.029)"><title>Sheet.25</title><desc>opt</desc><path d="M0 1346.41 L88.91 1346.41 L96 1339.32 L96 1324.01 L0 1324.01 L0 1346.41 Z" class="st13"/><text x="4" y="1338.81" class="st14">opt</text></g><g id="shape26-86" transform="translate(0,-890.626)"><title>Sheet.26</title><desc>[ if &lt;chassis_name&gt; is found ]</desc><text x="4" y="1338.81" class="st15">[ if &lt;chassis_name&gt; is found ]</text></g></g><g id="shape27-88" transform="translate(-1238.62,284.248) rotate(-90)"><title>Activation.928</title><rect width="28.346" height="8.504" x="0" y="1337.91" class="st5"/></g><g id="shape28-90" transform="translate(-841.768,284.248) rotate(-90)"><title>Activation.929</title><rect width="28.346" height="8.504" x="0" y="1337.91" class="st5"/></g><g id="shape29-92" transform="translate(107.791,-1097.6)"><title>Message.930</title><desc>&lt;chassis&gt;.get_all_components()</desc><path d="M0 1353.5 L379.87 1353.5" class="st6"/><rect width="179.427" height="14.4" x="104.46" y="1346.3" class="st11"/><text x="104.46" y="1357.1" class="st9">&lt;chassis&gt;.get_all_components()</text></g><g id="shape30-99" transform="translate(496.138,-1055.08)"><title>Return Message.931</title><desc>return &lt;component_list&gt;</desc><path d="M0 1339.32 L-388.35 1339.32" class="st10"/><rect width="141.81" height="14.4" x="-265.078" y="1332.12" class="st11"/><text x="-265.08" y="1342.92" class="st9">return &lt;component_list&gt;</text></g><g id="group31-106" transform="translate(82.2795,-771.611)"><title>Optional fragment.932</title><g id="shape31-107"><rect width="637.795" height="106.299" x="0" y="1240.11" class="st12"/></g><g id="shape32-109" transform="translate(0,-83.8955)"><title>Sheet.32</title><desc>opt</desc><path d="M0 1346.41 L88.91 1346.41 L96 1339.32 L96 1324.01 L0 1324.01 L0 1346.41 Z" class="st13"/><text x="4" y="1338.81" class="st14">opt</text></g><g id="shape33-112" transform="translate(0,-61.4918)"><title>Sheet.33</title><desc>[ if &lt;image_path&gt; not exists ] ]</desc><text x="4" y="1338.81" class="st15">[ if<tspan class="st4"> </tspan>&lt;image_path&gt; not exists ] ]</text></g></g><g id="shape34-115" transform="translate(-1238.62,546.453) rotate(-90)"><title>Activation.935</title><rect width="28.346" height="8.504" x="0" y="1337.91" class="st5"/></g><g id="shape35-117" transform="translate(100.705,-828.304)"><title>Self Message.936</title><desc>handle_error()</desc><path d="M7.09 1346.41 L25.09 1346.41 L25.09 1374.76 L14.57 1374.76" class="st16"/><rect width="80.269" height="14.4" x="21.803" y="1353.38" class="st8"/><text x="21.8" y="1364.18" class="st9">handle_error()</text></g><g id="shape36-125" transform="translate(-1238.62,879.524) rotate(-90)"><title>Activation.937</title><rect width="85.039" height="8.504" x="0" y="1337.91" class="st5"/></g><g id="shape37-127" transform="translate(107.791,-544.839)"><title>Message.938</title><desc>&lt;component&gt;.install_firmware(&lt;image_path&gt;)</desc><path d="M0 1339.32 L578.29 1339.32" class="st6"/><rect width="266.101" height="14.4" x="160.335" y="1332.12" class="st8"/><text x="160.34" y="1342.92" class="st9">&lt;component&gt;.install_firmware(&lt;image_path&gt;)</text></g><g id="shape38-134" transform="translate(694.563,-473.973)"><title>Return Message.940</title><desc>return &lt;result&gt;</desc><path d="M0 1353.5 L-586.77 1353.5" class="st10"/><rect width="87.399" height="14.4" x="-337.085" y="1346.3" class="st11"/><text x="-337.09" y="1357.1" class="st9">return &lt;result&gt;</text></g><g id="group39-141" transform="translate(82.2795,-70.036)"><title>Optional fragment.990</title><g id="shape39-142"><rect width="637.795" height="106.299" x="0" y="1240.11" class="st12"/></g><g id="shape40-144" transform="translate(0,-83.8956)"><title>Sheet.40</title><desc>opt</desc><path d="M0 1346.41 L88.91 1346.41 L96 1339.32 L96 1324.01 L0 1324.01 L0 1346.41 Z" class="st13"/><text x="4" y="1338.81" class="st14">opt</text></g><g id="shape41-147" transform="translate(0,-61.4919)"><title>Sheet.41</title><desc>[ if &lt;chassis_name&gt; is not found ]</desc><text x="4" y="1338.81" class="st15">[ if &lt;chassis_name&gt; is not found ]</text></g></g><g id="shape42-149" transform="translate(-1238.62,1249.16) rotate(-90)"><title>Activation.993</title><rect width="28.346" height="8.504" x="0" y="1337.91" class="st5"/></g><g id="shape43-151" transform="translate(100.705,-125.595)"><title>Self Message.994</title><desc>handle_error()</desc><path d="M7.09 1346.41 L25.09 1346.41 L25.09 1374.76 L15.57 1374.76" class="st6"/><rect width="80.269" height="14.4" x="21.803" y="1353.38" class="st11"/><text x="21.8" y="1364.18" class="st9">handle_error()</text></g><g id="shape44-158" transform="translate(-1238.62,936.217) rotate(-90)"><title>Activation.995</title><rect width="28.346" height="8.504" x="0" y="1337.91" class="st5"/></g><g id="shape45-160" transform="translate(100.705,-438.54)"><title>Self Message.996</title><desc>show_result(&lt;chassis_name&gt;,&lt;component_name&gt;,&lt;image_path&gt;,&lt;res...</desc><path d="M7.09 1346.41 L25.09 1346.41 L25.09 1374.76 L15.57 1374.76" class="st6"/><rect width="425.811" height="14.4" x="22.37" y="1353.38" class="st8"/><text x="22.37" y="1364.18" class="st9">show_result(&lt;chassis_name&gt;,&lt;component_name&gt;,&lt;image_path&gt;,&lt;result&gt;)</text></g><g id="group46-167" transform="translate(613.776,-1281.85)"><title>Object lifeline.999</title><desc>сomponent : ComponentBase&lt;Object&gt;</desc><g id="shape47-168" transform="translate(59.5276,-8.50394)"><title>Sheet.47</title><rect width="51.024" height="25.512" x="0" y="1320.9" class="st1"/></g><g id="shape48-170" transform="translate(76.5354,-46.063)"><title>Sheet.48</title><path d="M8.5 1346.41 a0 0 0 1 1 0 0 a0 0 0 1 1 0 0 Z" class="st1"/></g><g id="shape49-172" transform="translate(56.6929,1263.85)"><title>Sheet.49</title></g><g id="shape50-174" transform="translate(1431.45,1346.41) rotate(90)"><title>Sheet.50</title><path d="M0 1346.41 L1240.16 1346.41" class="st2"/></g><g id="shape46-177"><rect width="170.079" height="42.52" x="0" y="1303.89" class="st1"/><text x="49.48" y="1321.55" class="st3">сomponent<tspan class="st4"> </tspan><tspan class="st4">: </tspan><tspan x="12.02" class="st4" dy="1.2em">ComponentBase</tspan><tspan class="st4">&lt;Object&gt;</tspan></text></g></g><g id="group51-184" transform="translate(53.933,-367.674)"><title>Loop fragment.1006</title><g id="shape51-185"><rect width="694.488" height="666.142" x="0" y="680.268" class="st12"/></g><g id="shape52-187" transform="translate(0,-643.738)"><title>Sheet.52</title><desc>loop</desc><path d="M0 1346.41 L88.91 1346.41 L96 1339.32 L96 1324.01 L0 1324.01 L0 1346.41 Z" class="st13"/><text x="4" y="1338.81" class="st14">loop</text></g><g id="shape53-190" transform="translate(0,-621.334)"><title>Sheet.53</title><desc>[ for component in &lt;component_list&gt; ]</desc><text x="4" y="1338.81" class="st15">[ for component in &lt;component_list&gt; ]</text></g></g><g id="shape54-192" transform="translate(107.791,-977.123)"><title>Message.1011</title><desc>&lt;component&gt;.get_name()</desc><path d="M0 1339.32 L578.29 1339.32" class="st6"/><rect width="148.402" height="14.4" x="219.185" y="1332.12" class="st8"/><text x="219.18" y="1342.92" class="st9">&lt;component&gt;.get_name()</text></g><g id="shape55-199" transform="translate(694.563,-948.776)"><title>Return Message.1012</title><desc>return &lt;component_name&gt;</desc><path d="M0 1339.32 L-586.77 1339.32" class="st10"/><rect width="156.242" height="14.4" x="-371.507" y="1332.12" class="st11"/><text x="-371.51" y="1342.92" class="st9">return &lt;<tspan class="st18">component_name</tspan>&gt;</text></g><g id="shape56-207" transform="translate(-1238.62,390.547) rotate(-90)"><title>Activation.1013</title><rect width="28.346" height="8.504" x="0" y="1337.91" class="st5"/></g><g id="shape57-209" transform="translate(-643.343,390.547) rotate(-90)"><title>Activation.1014</title><rect width="28.346" height="8.504" x="0" y="1337.91" class="st5"/></g><g id="group58-211" transform="translate(68.1063,-381.847)"><title>Optional fragment.1017</title><g id="shape58-212"><rect width="666.142" height="545.669" x="0" y="800.741" class="st12"/></g><g id="shape59-214" transform="translate(0,-523.266)"><title>Sheet.59</title><desc>opt</desc><path d="M0 1346.41 L88.91 1346.41 L96 1339.32 L96 1324.01 L0 1324.01 L0 1346.41 Z" class="st13"/><text x="4" y="1338.81" class="st14">opt</text></g><g id="shape60-217" transform="translate(0,-500.862)"><title>Sheet.60</title><desc>[ if &lt;component_name&gt; is found ]</desc><text x="4" y="1338.81" class="st15">[ if &lt;component_name&gt; is found ]</text></g></g><g id="group61-219" transform="translate(82.2795,-233.028)"><title>Optional fragment.1024</title><g id="shape61-220"><rect width="637.795" height="106.299" x="0" y="1240.11" class="st12"/></g><g id="shape62-222" transform="translate(0,-83.8956)"><title>Sheet.62</title><desc>opt</desc><path d="M0 1346.41 L88.91 1346.41 L96 1339.32 L96 1324.01 L0 1324.01 L0 1346.41 Z" class="st13"/><text x="4" y="1338.81" class="st14">opt</text></g><g id="shape63-225" transform="translate(0,-61.4919)"><title>Sheet.63</title><desc>[ if &lt;component_name&gt; is not found ]</desc><text x="4" y="1338.81" class="st15">[ if &lt;component_name&gt; is not found ]</text></g></g><g id="shape64-227" transform="translate(-1238.62,1086.17) rotate(-90)"><title>Activation.1027</title><rect width="28.346" height="8.504" x="0" y="1337.91" class="st5"/></g><g id="shape65-229" transform="translate(100.705,-288.587)"><title>Self Message.1028</title><desc>handle_error()</desc><path d="M7.09 1346.41 L25.09 1346.41 L25.09 1374.76 L15.57 1374.76" class="st6"/><rect width="80.269" height="14.4" x="21.803" y="1353.38" class="st11"/><text x="21.8" y="1364.18" class="st9">handle_error()</text></g><g id="shape66-236" transform="translate(-643.343,879.524) rotate(-90)"><title>Activation.939</title><rect width="85.039" height="8.504" x="0" y="1337.91" class="st5"/></g><g id="shape67-238" transform="translate(-1238.62,631.492) rotate(-90)"><title>Activation.1100</title><rect width="28.346" height="8.504" x="0" y="1337.91" class="st5"/></g><g id="shape68-240" transform="translate(107.791,-750.351)"><title>Message.1101</title><desc>&lt;component&gt;.get_firmware_update_notification(&lt;image_path&gt;)</desc><path d="M0 1353.5 L578.29 1353.5" class="st6"/><rect width="366.087" height="14.4" x="110.342" y="1346.3" class="st11"/><text x="110.34" y="1357.1" class="st9">&lt;component&gt;.get_firmware_update_notification(&lt;image_path&gt;)</text></g><g id="shape69-247" transform="translate(694.563,-707.831)"><title>Return Message.1102</title><desc>return &lt;update_notification&gt;</desc><path d="M0 1339.32 L-586.77 1339.32" class="st10"/><rect width="165.822" height="14.4" x="-376.297" y="1332.12" class="st11"/><text x="-376.3" y="1342.92" class="st9">return &lt;update_notification&gt;</text></g><g id="shape70-254" transform="translate(-643.343,631.499) rotate(-90.0003)"><title>Activation.1103</title><rect width="28.346" height="8.504" x="0" y="1337.91" class="st5"/></g><g id="group71-256" transform="translate(82.2795,-580.272)"><title>Optional fragment.1105</title><g id="shape71-257"><rect width="637.795" height="106.299" x="0" y="1240.11" class="st12"/></g><g id="shape72-259" transform="translate(0,-83.8955)"><title>Sheet.72</title><desc>opt</desc><path d="M0 1346.41 L88.91 1346.41 L96 1339.32 L96 1324.01 L0 1324.01 L0 1346.41 Z" class="st13"/><text x="4" y="1338.81" class="st14">opt</text></g><g id="shape73-262" transform="translate(0,-61.4918)"><title>Sheet.73</title><desc>[ if &lt;update_notification&gt; not empty ] ]</desc><text x="4" y="1338.81" class="st15">[ if<tspan class="st4"> </tspan>&lt;update_notification&gt; not empty ] ]</text></g></g><g id="shape74-265" transform="translate(-1238.62,737.791) rotate(-90)"><title>Activation.1108</title><rect width="28.346" height="8.504" x="0" y="1337.91" class="st5"/></g><g id="shape75-267" transform="translate(100.705,-636.965)"><title>Self Message.1109</title><desc>show_notification(&lt;update_notification&gt;)</desc><path d="M7.09 1346.41 L25.09 1346.41 L25.09 1374.76 L15.57 1374.76" class="st6"/><rect width="236.106" height="14.4" x="22.545" y="1353.1" class="st8"/><text x="22.55" y="1363.9" class="st9">show_notification(&lt;update_notification&gt;)</text></g></g></svg>