<svg xmlns="http://www.w3.org/2000/svg" xmlns:ev="http://www.w3.org/2001/xml-events" xmlns:xlink="http://www.w3.org/1999/xlink" width="1334.371" height="17.519in" class="st19" color-interpolation-filters="sRGB" viewBox="0 0 1000.78 1261.37" xml:space="preserve"><title>fwutil flows</title><style type="text/css">.st1,.st2{stroke:#000;stroke-linecap:round;stroke-linejoin:round;stroke-width:1}.st1{fill:#5b9bd5}.st2{stroke-dasharray:7,5}.st3{fill:#fff;font-family:Segoe UI;font-size:1.00001em;font-weight:700}.st4{font-size:1em}.st5{fill:#af5200;stroke-linecap:round;stroke-linejoin:round;stroke-width:.5}.st5,.st6,.st7{stroke:#a54d00}.st6{marker-end:url(#mrkr4-49);stroke-linecap:round;stroke-linejoin:round;stroke-width:1}.st7{fill:#a54d00;fill-opacity:1;stroke-opacity:1;stroke-width:.23584905660377}.st8{fill:#fff;stroke:none;stroke-linecap:butt}.st9{fill:#803a00;font-family:Segoe UI;font-size:1.00001em;font-weight:700}.st10{marker-end:url(#mrkr3-57);stroke:#a54d00;stroke-dasharray:7,5;stroke-linecap:round;stroke-linejoin:round;stroke-width:1}.st11{fill:#fff;stroke:none;stroke-linecap:butt;stroke-width:7.2}.st12,.st13{stroke:#b43500;stroke-linecap:round;stroke-linejoin:round;stroke-width:1}.st12{fill:#b43500;fill-opacity:0}.st13{fill:#fff}.st14,.st15{fill:#b43500;font-family:Segoe UI;font-size:1.00001em;font-weight:700}.st15{fill:#ac770d}.st16,.st17{fill:#813b00;font-size:1em}.st17{font-family:Segoe UI;font-size:1.00001em;font-weight:700}.st18{fill:#803a00;font-size:1em}.st19{fill:none;fill-rule:evenodd;font-size:12px;overflow:visible;stroke-linecap:square;stroke-miterlimit:3}</style><defs id="Markers"><g id="lend4"><path d="M 2 1 L 0 0 L 2 -1 L 2 1" style="stroke:none"/></g><marker id="mrkr4-49" class="st7" markerUnits="strokeWidth" orient="auto" overflow="visible" refX="-8.48"><use transform="scale(-4.24,-4.24)" xlink:href="#lend4"/></marker><g id="lend3"><path d="M 2 1 L 0 0 L 2 -1" style="stroke-linecap:round;stroke-linejoin:round;fill:none"/></g><marker id="mrkr3-57" class="st7" markerUnits="strokeWidth" orient="auto" overflow="visible"><use transform="scale(-4.24,-4.24)" xlink:href="#lend3"/></marker></defs><g><title>Page-4</title><g id="group1-1" transform="translate(18.5,-1196.81)"><title>Actor lifeline.764</title><desc>FW Utility</desc><g id="shape2-2" transform="translate(59.5276,-8.50394)"><title>Sheet.2</title><rect width="51.024" height="25.512" x="0" y="1235.86" class="st1"/></g><g id="shape3-4" transform="translate(76.5354,-46.063)"><title>Sheet.3</title><path d="M8.5 1261.37 a6.99441E-15 0 0 1 1 -1.42109E-14 0 a6.99441E-15 0 0 1 1 1.42109E-14 0 Z" class="st1"/></g><g id="shape4-6" transform="translate(56.6929,1178.81)"><title>Sheet.4</title></g><g id="shape5-8" transform="translate(1346.41,1261.37) rotate(90)"><title>Sheet.5</title><path d="M0 1261.37 L1155.12 1261.37" class="st2"/></g><g id="shape1-11"><rect width="170.079" height="42.52" x="0" y="1218.85" class="st1"/><text x="56.88" y="1243.71" class="st3">FW Utility</text></g></g><g id="group6-14" transform="translate(216.925,-1196.81)"><title>Object lifeline.769</title><desc>platform : PlatformBase&lt;Object&gt;</desc><g id="shape7-15" transform="translate(59.5276,-8.50394)"><title>Sheet.7</title><rect width="51.024" height="25.512" x="0" y="1235.86" class="st1"/></g><g id="shape8-17" transform="translate(76.5354,-46.063)"><title>Sheet.8</title><path d="M8.5 1261.37 a0 0 0 1 1 0 0 a0 0 0 1 1 0 0 Z" class="st1"/></g><g id="shape9-19" transform="translate(56.6929,1178.81)"><title>Sheet.9</title></g><g id="shape10-21" transform="translate(1346.41,1261.37) rotate(90)"><title>Sheet.10</title><path d="M0 1261.37 L1155.12 1261.37" class="st2"/></g><g id="shape6-24"><rect width="170.079" height="42.52" x="0" y="1218.85" class="st1"/><text x="56.92" y="1236.51" class="st3">platform : <tspan x="20.35" class="st4" dy="1.2em">PlatformBase&lt;Object&gt;</tspan></text></g></g><g id="group11-28" transform="translate(415.35,-1196.81)"><title>Object lifeline.774</title><desc>chassis : ChassisBase&lt;DeviceBase&gt;</desc><g id="shape12-29" transform="translate(59.5276,-8.50394)"><title>Sheet.12</title><rect width="51.024" height="25.512" x="0" y="1235.86" class="st1"/></g><g id="shape13-31" transform="translate(76.5354,-46.063)"><title>Sheet.13</title><path d="M8.5 1261.37 a0 0 0 1 1 0 0 a0 0 0 1 1 0 0 Z" class="st1"/></g><g id="shape14-33" transform="translate(56.6929,1178.81)"><title>Sheet.14</title></g><g id="shape15-35" transform="translate(1346.41,1261.37) rotate(90)"><title>Sheet.15</title><path d="M0 1261.37 L1155.12 1261.37" class="st2"/></g><g id="shape11-38"><rect width="170.079" height="42.52" x="0" y="1218.85" class="st1"/><text x="62.41" y="1236.51" class="st3">chassis : <tspan x="11.67" class="st4" dy="1.2em">ChassisBase&lt;DeviceBase&gt;</tspan></text></g></g><g id="shape16-42" transform="translate(-955.154,121.256) rotate(-90)"><title>Activation.779</title><rect width="28.346" height="8.504" x="0" y="1252.87" class="st5"/></g><g id="shape17-44" transform="translate(107.791,-1161.37)"><title>Message.780</title><desc>&lt;platform&gt;.get_chassis()</desc><path d="M0 1254.28 L181.44 1254.28" class="st6"/><rect width="141.025" height="14.4" x="24.448" y="1247.08" class="st8"/><text x="24.45" y="1257.88" class="st9">&lt;platform&gt;.get_chassis()</text></g><g id="shape18-52" transform="translate(297.712,-1133.03)"><title>Return Message.781</title><desc>return &lt;chassis&gt;</desc><path d="M0 1254.28 L-189.92 1254.28" class="st10"/><rect width="94.202" height="14.4" x="-142.061" y="1247.08" class="st11"/><text x="-142.06" y="1257.88" class="st9">return &lt;chassis&gt;</text></g><g id="group19-60" transform="translate(613.775,-1196.81)"><title>Object lifeline.782</title><desc>module : ModuleBase&lt;DeviceBase&gt;</desc><g id="shape20-61" transform="translate(59.5276,-8.50394)"><title>Sheet.20</title><rect width="51.024" height="25.512" x="0" y="1235.86" class="st1"/></g><g id="shape21-63" transform="translate(76.5354,-46.063)"><title>Sheet.21</title><path d="M8.5 1261.37 a0 0 0 1 1 0 0 a0 0 0 1 1 0 0 Z" class="st1"/></g><g id="shape22-65" transform="translate(56.6929,1178.81)"><title>Sheet.22</title></g><g id="shape23-67" transform="translate(1346.41,1261.37) rotate(90)"><title>Sheet.23</title><path d="M0 1261.37 L1155.12 1261.37" class="st2"/></g><g id="shape19-70"><rect width="170.079" height="42.52" x="0" y="1218.85" class="st1"/><text x="60.3" y="1236.51" class="st3">module : <tspan x="10.17" class="st4" dy="1.2em">ModuleBase&lt;DeviceBase&gt;</tspan></text></g></g><g id="shape24-74" transform="translate(-1153.58,121.256) rotate(-90)"><title>Activation.795</title><rect width="28.346" height="8.504" x="0" y="1252.87" class="st5"/></g><g id="shape25-76" transform="translate(107.791,-1104.68)"><title>Message.845</title><desc>&lt;chassis&gt;.get_name()</desc><path d="M0 1254.28 L379.87 1254.28" class="st6"/><rect width="122.544" height="14.4" x="132.901" y="1247.08" class="st11"/><text x="132.9" y="1257.88" class="st9">&lt;chassis&gt;.get_name()</text></g><g id="shape26-83" transform="translate(496.138,-1076.34)"><title>Return Message.846</title><desc>return &lt;chassis_name&gt;</desc><path d="M0 1254.28 L-388.35 1254.28" class="st10"/><rect width="130.384" height="14.4" x="-259.365" y="1247.08" class="st11"/><text x="-259.36" y="1257.88" class="st9">return &lt;chassis_name&gt;</text></g><g id="shape27-90" transform="translate(-1153.58,177.949) rotate(-90)"><title>Activation.847</title><rect width="28.346" height="8.504" x="0" y="1252.87" class="st5"/></g><g id="shape28-92" transform="translate(-756.729,177.949) rotate(-90)"><title>Activation.848</title><rect width="28.346" height="8.504" x="0" y="1252.87" class="st5"/></g><g id="group29-94" transform="translate(68.1062,-183.422)"><title>Loop fragment.851</title><g id="shape29-95"><rect width="864.567" height="453.543" x="0" y="807.827" class="st12"/></g><g id="shape30-97" transform="translate(0,-431.14)"><title>Sheet.30</title><desc>loop</desc><path d="M0 1261.37 L88.91 1261.37 L96 1254.28 L96 1238.97 L0 1238.97 L0 1261.37 Z" class="st13"/><text x="4" y="1253.77" class="st14">loop</text></g><g id="shape31-100" transform="translate(0,-408.736)"><title>Sheet.31</title><desc>[ for module in &lt;module_list&gt; ]</desc><text x="4" y="1253.77" class="st15">[ for module in &lt;module_list&gt; ]</text></g></g><g id="shape32-102" transform="translate(107.791,-580.272)"><title>Message.856</title><desc>&lt;module&gt;.get_name()</desc><path d="M0 1254.28 L578.29 1254.28" class="st6"/><rect width="126.775" height="14.4" x="229.998" y="1247.08" class="st11"/><text x="230" y="1257.88" class="st9">&lt;module&gt;.get_name()</text></g><g id="shape33-109" transform="translate(694.563,-566.099)"><title>Return Message.857</title><desc>return &lt;module_name&gt;</desc><path d="M0 1268.46 L-586.77 1268.46" class="st10"/><rect width="134.615" height="14.4" x="-360.693" y="1261.26" class="st11"/><text x="-360.69" y="1272.06" class="st9">return &lt;module_name&gt;</text></g><g id="shape34-116" transform="translate(-1153.58,702.358) rotate(-90)"><title>Activation.858</title><rect width="28.346" height="8.504" x="0" y="1252.87" class="st5"/></g><g id="shape35-118" transform="translate(-558.304,702.358) rotate(-90)"><title>Activation.859</title><rect width="28.346" height="8.504" x="0" y="1252.87" class="st5"/></g><g id="shape36-120" transform="translate(-1153.58,759.051) rotate(-90)"><title>Activation.863</title><rect width="28.346" height="8.504" x="0" y="1252.87" class="st5"/></g><g id="shape37-122" transform="translate(-558.304,759.051) rotate(-90)"><title>Activation.864</title><rect width="28.346" height="8.504" x="0" y="1252.87" class="st5"/></g><g id="shape38-124" transform="translate(107.791,-523.579)"><title>Message.865</title><desc>&lt;module&gt;.get_all_components()</desc><path d="M0 1254.28 L578.29 1254.28" class="st6"/><rect width="183.658" height="14.4" x="201.557" y="1247.08" class="st8"/><text x="201.56" y="1257.88" class="st9">&lt;module&gt;.get_all_components()</text></g><g id="shape39-131" transform="translate(694.563,-509.406)"><title>Return Message.866</title><desc>return &lt;component_list&gt;</desc><path d="M0 1268.46 L-586.77 1268.46" class="st10"/><rect width="141.81" height="14.4" x="-364.291" y="1261.26" class="st11"/><text x="-364.29" y="1272.06" class="st9">return &lt;component_list&gt;</text></g><g id="shape40-138" transform="translate(-1153.58,1191.33) rotate(-90)"><title>Activation.868</title><rect width="85.039" height="8.504" x="0" y="1252.87" class="st5"/></g><g id="shape41-140" transform="translate(100.704,-155.075)"><title>Self Message.869</title><desc>show_status(&lt;chassis_component_map&gt;,&lt;module_component_map&gt;)</desc><path d="M7.09 1261.37 L25.09 1261.37 L25.09 1346.41 L15.57 1346.41" class="st6"/><rect width="394.463" height="14.4" x="21.036" y="1296.69" class="st11"/><text x="21.04" y="1307.49" class="st9">show_status(&lt;chassis<tspan class="st16">_component_map</tspan>&gt;,&lt;<tspan class="st16">module_component_map</tspan>&gt;)</text></g><g id="shape42-149" transform="translate(-1153.58,234.642) rotate(-90)"><title>Activation.872</title><rect width="28.346" height="8.504" x="0" y="1252.87" class="st5"/></g><g id="shape43-151" transform="translate(-756.729,234.642) rotate(-90)"><title>Activation.873</title><rect width="28.346" height="8.504" x="0" y="1252.87" class="st5"/></g><g id="shape44-153" transform="translate(107.791,-1047.99)"><title>Message.874</title><desc>&lt;chassis&gt;.get_all_components()</desc><path d="M0 1254.28 L379.87 1254.28" class="st6"/><rect width="179.427" height="14.4" x="104.46" y="1247.08" class="st11"/><text x="104.46" y="1257.88" class="st9">&lt;chassis&gt;.get_all_components()</text></g><g id="shape45-160" transform="translate(496.138,-1019.64)"><title>Return Message.875</title><desc>return &lt;component_list&gt;</desc><path d="M0 1254.28 L-386.93 1254.28" class="st10"/><rect width="141.81" height="14.4" x="-264.37" y="1247.08" class="st11"/><text x="-264.37" y="1257.88" class="st9">return &lt;component_list&gt;</text></g><g id="group46-167" transform="translate(82.2794,-722.005)"><title>Loop fragment.877</title><g id="shape46-168"><rect width="836.221" height="276.378" x="0" y="984.993" class="st12"/></g><g id="shape47-170" transform="translate(0,-253.974)"><title>Sheet.47</title><desc>loop</desc><path d="M0 1261.37 L88.91 1261.37 L96 1254.28 L96 1238.97 L0 1238.97 L0 1261.37 Z" class="st13"/><text x="4" y="1253.77" class="st14">loop</text></g><g id="shape48-173" transform="translate(0,-231.571)"><title>Sheet.48</title><desc>[ for component in &lt;component_list&gt; ]</desc><text x="4" y="1253.77" class="st15">[ for component in &lt;component_list&gt; ]</text></g></g><g id="shape49-175" transform="translate(-1153.58,511.02) rotate(-90)"><title>Activation.884</title><rect width="28.346" height="8.504" x="0" y="1252.87" class="st5"/></g><g id="shape50-177" transform="translate(100.705,-778.697)"><title>Self Message.885</title><desc>chassis_component_map[&lt;chassis_name&gt;][&lt;component_name&gt;] = (&lt;f...</desc><path d="M7.09 1261.37 L25.09 1261.37 L25.09 1289.72 L15.57 1289.72" class="st6"/><rect width="586.875" height="14.4" x="22.625" y="1268.34" class="st11"/><text x="22.63" y="1279.14" class="st9">chassis<tspan class="st16">_component_map[&lt;chassis_name&gt;][&lt;component_name&gt;] = (&lt;firmware_version&gt;,&lt;</tspan>description<tspan class="st16">&gt;)</tspan></text></g><g id="shape51-186" transform="translate(107.791,-884.997)"><title>Message.889</title><desc>&lt;component&gt;.get_firmware_version()</desc><path d="M0 1254.28 L776.72 1254.28" class="st6"/><rect width="214.309" height="14.4" x="285.444" y="1247.08" class="st11"/><text x="285.44" y="1257.88" class="st9">&lt;<tspan class="st16">component</tspan>&gt;.get_firmware_version()</text></g><g id="shape52-194" transform="translate(892.988,-856.65)"><title>Return Message.890</title><desc>return &lt;firmware_version&gt;</desc><path d="M0 1254.28 L-785.2 1254.28" class="st10"/><rect width="152.621" height="14.4" x="-468.909" y="1247.08" class="st11"/><text x="-468.91" y="1257.88" class="st9">return &lt;firmware_version&gt;</text></g><g id="shape53-201" transform="translate(-1153.58,397.634) rotate(-90)"><title>Activation.891</title><rect width="28.346" height="8.504" x="0" y="1252.87" class="st5"/></g><g id="shape54-203" transform="translate(-1153.58,596.059) rotate(-90)"><title>Activation.898</title><rect width="28.346" height="8.504" x="0" y="1252.87" class="st5"/></g><g id="shape55-205" transform="translate(-756.729,596.059) rotate(-90)"><title>Activation.899</title><rect width="28.346" height="8.504" x="0" y="1252.87" class="st5"/></g><g id="shape56-207" transform="translate(107.791,-686.571)"><title>Message.900</title><desc>&lt;chassis&gt;.get_all_modules()</desc><path d="M0 1254.28 L379.87 1254.28" class="st6"/><rect width="157.8" height="14.4" x="115.273" y="1247.08" class="st11"/><text x="115.27" y="1257.88" class="st9">&lt;chassis&gt;.get_all_modules()</text></g><g id="shape57-214" transform="translate(496.138,-658.225)"><title>Return Message.901</title><desc>return &lt;module_list&gt;</desc><path d="M0 1254.28 L-388.35 1254.28" class="st10"/><rect width="120.183" height="14.4" x="-254.265" y="1247.08" class="st11"/><text x="-254.26" y="1257.88" class="st9">return &lt;module_list&gt;</text></g><g id="group58-221" transform="translate(812.201,-1196.81)"><title>Object lifeline.1062</title><desc>сomponent : ComponentBase&lt;Object&gt;</desc><g id="shape59-222" transform="translate(59.5276,-8.50394)"><title>Sheet.59</title><rect width="51.024" height="25.512" x="0" y="1235.86" class="st1"/></g><g id="shape60-224" transform="translate(76.5354,-46.063)"><title>Sheet.60</title><path d="M8.5 1261.37 a0 0 0 1 1 0 0 a0 0 0 1 1 0 0 Z" class="st1"/></g><g id="shape61-226" transform="translate(56.6929,1178.81)"><title>Sheet.61</title></g><g id="shape62-228" transform="translate(1346.41,1261.37) rotate(90)"><title>Sheet.62</title><path d="M0 1261.37 L1155.12 1261.37" class="st2"/></g><g id="shape58-231"><rect width="170.079" height="42.52" x="0" y="1218.85" class="st1"/><text x="49.48" y="1236.51" class="st3">сomponent<tspan class="st4"> </tspan><tspan class="st4">: </tspan><tspan x="12.02" class="st4" dy="1.2em">ComponentBase</tspan><tspan class="st4">&lt;Object&gt;</tspan></text></g></g><g id="shape63-238" transform="translate(107.791,-828.304)"><title>Message.1072</title><desc>&lt;component&gt;.get_description()</desc><path d="M0 1254.28 L776.72 1254.28" class="st6"/><rect width="180.465" height="14.4" x="302.366" y="1247.08" class="st11"/><text x="302.37" y="1257.88" class="st9">&lt;<tspan class="st16">component</tspan>&gt;.get_description()</text></g><g id="shape64-246" transform="translate(892.988,-799.957)"><title>Return Message.1073</title><desc>return &lt;description&gt;</desc><path d="M0 1254.28 L-785.2 1254.28" class="st10"/><rect width="118.777" height="14.4" x="-451.987" y="1247.08" class="st8"/><text x="-451.99" y="1257.88" class="st9">return &lt;description&gt;</text></g><g id="shape65-253" transform="translate(-1153.58,454.327) rotate(-90)"><title>Activation.1074</title><rect width="28.346" height="8.504" x="0" y="1252.87" class="st5"/></g><g id="shape66-255" transform="translate(-359.879,454.327) rotate(-90)"><title>Activation.1075</title><rect width="28.346" height="8.504" x="0" y="1252.87" class="st5"/></g><g id="shape67-257" transform="translate(-359.879,397.634) rotate(-90)"><title>Activation.892</title><rect width="28.346" height="8.504" x="0" y="1252.87" class="st5"/></g><g id="shape68-259" transform="translate(107.791,-941.69)"><title>Message.1078</title><desc>&lt;component&gt;.get_name()</desc><path d="M0 1254.28 L776.72 1254.28" class="st6"/><rect width="148.402" height="14.4" x="318.397" y="1247.08" class="st8"/><text x="318.4" y="1257.88" class="st9">&lt;<tspan class="st16">component</tspan>&gt;.get_name()</text></g><g id="shape69-267" transform="translate(892.988,-913.343)"><title>Return Message.1079</title><desc>return &lt;component_name&gt;</desc><path d="M0 1254.28 L-785.2 1254.28" class="st10"/><rect width="156.242" height="14.4" x="-470.719" y="1247.08" class="st8"/><text x="-470.72" y="1257.88" class="st9">return &lt;<tspan class="st16">component_name</tspan>&gt;</text></g><g id="shape70-275" transform="translate(-1153.58,340.941) rotate(-90)"><title>Activation.1080</title><rect width="28.346" height="8.504" x="0" y="1252.87" class="st5"/></g><g id="shape71-277" transform="translate(-359.879,340.941) rotate(-90)"><title>Activation.1081</title><rect width="28.346" height="8.504" x="0" y="1252.87" class="st5"/></g><g id="group72-279" transform="translate(82.2793,-197.595)"><title>Loop fragment.1083</title><g id="shape72-280"><rect width="836.221" height="276.378" x="0" y="984.993" class="st12"/></g><g id="shape73-282" transform="translate(0,-253.974)"><title>Sheet.73</title><desc>loop</desc><path d="M0 1261.37 L88.91 1261.37 L96 1254.28 L96 1238.97 L0 1238.97 L0 1261.37 Z" class="st13"/><text x="4" y="1253.77" class="st14">loop</text></g><g id="shape74-285" transform="translate(0,-231.571)"><title>Sheet.74</title><desc>[ for component in &lt;component_list&gt; ]</desc><text x="4" y="1253.77" class="st15">[ for component in &lt;component_list&gt; ]</text></g></g><g id="shape75-287" transform="translate(-1153.58,1035.43) rotate(-90)"><title>Activation.1086</title><rect width="28.346" height="8.504" x="0" y="1252.87" class="st5"/></g><g id="shape76-289" transform="translate(100.704,-254.288)"><title>Self Message.1087</title><desc>module_component_map[&lt;chassis_name&gt;][&lt;module_name&gt;][&lt;componen...</desc><path d="M7.09 1261.37 L25.09 1261.37 L25.09 1289.72 L15.57 1289.72" class="st6"/><rect width="696.037" height="14.4" x="19.919" y="1268.34" class="st8"/><text x="19.92" y="1279.14" class="st17">module_component_map[&lt;chassis_name&gt;][&lt;module_name&gt;][&lt;component_name&gt;] = (&lt;firmware_version&gt;,&lt;<tspan class="st18">description</tspan>&gt;)</text></g><g id="shape77-297" transform="translate(107.791,-360.587)"><title>Message.1088</title><desc>&lt;component&gt;.get_firmware_version()</desc><path d="M0 1254.28 L776.72 1254.28" class="st6"/><rect width="214.309" height="14.4" x="285.444" y="1247.08" class="st11"/><text x="285.44" y="1257.88" class="st9">&lt;<tspan class="st16">component</tspan>&gt;.get_firmware_version()</text></g><g id="shape78-305" transform="translate(892.988,-332.241)"><title>Return Message.1089</title><desc>return &lt;firmware_version&gt;</desc><path d="M0 1254.28 L-785.2 1254.28" class="st10"/><rect width="152.621" height="14.4" x="-468.909" y="1247.08" class="st11"/><text x="-468.91" y="1257.88" class="st9">return &lt;firmware_version&gt;</text></g><g id="shape79-312" transform="translate(-1153.58,922.043) rotate(-90)"><title>Activation.1090</title><rect width="28.346" height="8.504" x="0" y="1252.87" class="st5"/></g><g id="shape80-314" transform="translate(107.791,-303.894)"><title>Message.1091</title><desc>&lt;component&gt;.get_description()</desc><path d="M0 1254.28 L776.72 1254.28" class="st6"/><rect width="180.465" height="14.4" x="302.366" y="1247.08" class="st11"/><text x="302.37" y="1257.88" class="st9">&lt;<tspan class="st16">component</tspan>&gt;.get_description()</text></g><g id="shape81-322" transform="translate(892.988,-275.548)"><title>Return Message.1092</title><desc>return &lt;description&gt;</desc><path d="M0 1254.28 L-785.2 1254.28" class="st10"/><rect width="118.777" height="14.4" x="-451.987" y="1247.08" class="st8"/><text x="-451.99" y="1257.88" class="st9">return &lt;description&gt;</text></g><g id="shape82-329" transform="translate(-1153.58,978.736) rotate(-90)"><title>Activation.1093</title><rect width="28.346" height="8.504" x="0" y="1252.87" class="st5"/></g><g id="shape83-331" transform="translate(-359.879,978.736) rotate(-90)"><title>Activation.1094</title><rect width="28.346" height="8.504" x="0" y="1252.87" class="st5"/></g><g id="shape84-333" transform="translate(-359.879,922.043) rotate(-90)"><title>Activation.1095</title><rect width="28.346" height="8.504" x="0" y="1252.87" class="st5"/></g><g id="shape85-335" transform="translate(107.791,-417.28)"><title>Message.1096</title><desc>&lt;component&gt;.get_name()</desc><path d="M0 1254.28 L776.72 1254.28" class="st6"/><rect width="148.402" height="14.4" x="318.397" y="1247.08" class="st8"/><text x="318.4" y="1257.88" class="st9">&lt;<tspan class="st16">component</tspan>&gt;.get_name()</text></g><g id="shape86-343" transform="translate(892.988,-388.934)"><title>Return Message.1097</title><desc>return &lt;component_name&gt;</desc><path d="M0 1254.28 L-785.2 1254.28" class="st10"/><rect width="156.242" height="14.4" x="-470.719" y="1247.08" class="st8"/><text x="-470.72" y="1257.88" class="st9">return &lt;<tspan class="st16">component_name</tspan>&gt;</text></g><g id="shape87-351" transform="translate(-1153.58,865.35) rotate(-90)"><title>Activation.1098</title><rect width="28.346" height="8.504" x="0" y="1252.87" class="st5"/></g><g id="shape88-353" transform="translate(-359.879,865.35) rotate(-90)"><title>Activation.1099</title><rect width="28.346" height="8.504" x="0" y="1252.87" class="st5"/></g></g></svg>