<svg xmlns="http://www.w3.org/2000/svg" xmlns:ev="http://www.w3.org/2001/xml-events" xmlns:xlink="http://www.w3.org/1999/xlink" width="1334.371" height="2343.245" class="st19" color-interpolation-filters="sRGB" viewBox="0 0 1000.78 1757.43" xml:space="preserve"><title>fwutil flows</title><style type="text/css">.st1,.st2{stroke:#000;stroke-linecap:round;stroke-linejoin:round;stroke-width:1}.st1{fill:#5b9bd5}.st2{stroke-dasharray:7,5}.st3{fill:#fff;font-family:Segoe UI;font-size:1.00001em;font-weight:700}.st4{font-size:1em}.st5{fill:#af5200;stroke-linecap:round;stroke-linejoin:round;stroke-width:.5}.st5,.st6,.st7{stroke:#a54d00}.st6{marker-end:url(#mrkr4-49);stroke-linecap:round;stroke-linejoin:round;stroke-width:1}.st7{fill:#a54d00;fill-opacity:1;stroke-opacity:1;stroke-width:.23584905660377}.st8{fill:#fff;stroke:none;stroke-linecap:butt;stroke-width:7.2}.st9{fill:#803a00;font-family:Segoe UI;font-size:1.00001em;font-weight:700}.st10{marker-end:url(#mrkr3-57);stroke:#a54d00;stroke-dasharray:7,5;stroke-linecap:round;stroke-linejoin:round;stroke-width:1}.st11{fill:#fff;stroke:none;stroke-linecap:butt}.st12,.st13{stroke:#b43500;stroke-linecap:round;stroke-linejoin:round;stroke-width:1}.st12{fill:#b43500;fill-opacity:0}.st13{fill:#fff}.st14,.st15{fill:#b43500;font-family:Segoe UI;font-size:1.00001em;font-weight:700}.st15{fill:#ac770d}.st16,.st17{fill:#813b00;font-size:1em}.st17{font-family:Segoe UI;font-size:1.00001em;font-weight:700}.st18{fill:#803a00;font-size:1em}.st19{fill:none;fill-rule:evenodd;font-size:12px;overflow:visible;stroke-linecap:square;stroke-miterlimit:3}</style><defs id="Markers"><g id="lend4"><path d="M 2 1 L 0 0 L 2 -1 L 2 1" style="stroke:none"/></g><marker id="mrkr4-49" class="st7" markerUnits="strokeWidth" orient="auto" overflow="visible" refX="-8.48"><use transform="scale(-4.24,-4.24)" xlink:href="#lend4"/></marker><g id="lend3"><path d="M 2 1 L 0 0 L 2 -1" style="stroke-linecap:round;stroke-linejoin:round;fill:none"/></g><marker id="mrkr3-57" class="st7" markerUnits="strokeWidth" orient="auto" overflow="visible"><use transform="scale(-4.24,-4.24)" xlink:href="#lend3"/></marker></defs><g><title>Page-4</title><g id="group2-1" transform="translate(18.5,-1692.87)"><title>Actor lifeline.1118</title><desc>FW Utility</desc><g id="shape3-2" transform="translate(59.5276,-8.50394)"><title>Sheet.3</title><rect width="51.024" height="25.512" x="0" y="1731.92" class="st1"/></g><g id="shape4-4" transform="translate(76.5354,-46.063)"><title>Sheet.4</title><path d="M8.5 1757.43 a6.99441E-15 0 0 1 1 -1.42109E-14 0 a6.99441E-15 0 0 1 1 1.42109E-14 0 Z" class="st1"/></g><g id="shape5-6" transform="translate(56.6929,1674.87)"><title>Sheet.5</title></g><g id="shape6-8" transform="translate(1842.47,1757.43) rotate(90)"><title>Sheet.6</title><path d="M0 1757.43 L1651.18 1757.43" class="st2"/></g><g id="shape2-11"><rect width="170.079" height="42.52" x="0" y="1714.91" class="st1"/><text x="56.88" y="1739.77" class="st3">FW Utility</text></g></g><g id="group7-14" transform="translate(216.925,-1692.87)"><title>Object lifeline.1123</title><desc>platform : PlatformBase&lt;Object&gt;</desc><g id="shape8-15" transform="translate(59.5276,-8.50394)"><title>Sheet.8</title><rect width="51.024" height="25.512" x="0" y="1731.92" class="st1"/></g><g id="shape9-17" transform="translate(76.5354,-46.063)"><title>Sheet.9</title><path d="M8.5 1757.43 a0 0 0 1 1 0 0 a0 0 0 1 1 0 0 Z" class="st1"/></g><g id="shape10-19" transform="translate(56.6929,1674.87)"><title>Sheet.10</title></g><g id="shape11-21" transform="translate(1842.47,1757.43) rotate(90)"><title>Sheet.11</title><path d="M0 1757.43 L1651.18 1757.43" class="st2"/></g><g id="shape7-24"><rect width="170.079" height="42.52" x="0" y="1714.91" class="st1"/><text x="56.92" y="1732.57" class="st3">platform : <tspan x="20.35" class="st4" dy="1.2em">PlatformBase&lt;Object&gt;</tspan></text></g></g><g id="group12-28" transform="translate(415.35,-1692.87)"><title>Object lifeline.1128</title><desc>chassis : ChassisBase&lt;DeviceBase&gt;</desc><g id="shape13-29" transform="translate(59.5276,-8.50394)"><title>Sheet.13</title><rect width="51.024" height="25.512" x="0" y="1731.92" class="st1"/></g><g id="shape14-31" transform="translate(76.5354,-46.063)"><title>Sheet.14</title><path d="M8.5 1757.43 a0 0 0 1 1 0 0 a0 0 0 1 1 0 0 Z" class="st1"/></g><g id="shape15-33" transform="translate(56.6929,1674.87)"><title>Sheet.15</title></g><g id="shape16-35" transform="translate(1842.47,1757.43) rotate(90)"><title>Sheet.16</title><path d="M0 1757.43 L1651.18 1757.43" class="st2"/></g><g id="shape12-38"><rect width="170.079" height="42.52" x="0" y="1714.91" class="st1"/><text x="62.41" y="1732.57" class="st3">chassis : <tspan x="11.67" class="st4" dy="1.2em">ChassisBase&lt;DeviceBase&gt;</tspan></text></g></g><g id="shape17-42" transform="translate(-1451.22,121.256) rotate(-90)"><title>Activation.1133</title><rect width="28.346" height="8.504" x="0" y="1748.93" class="st5"/></g><g id="shape18-44" transform="translate(107.791,-1657.44)"><title>Message.1134</title><desc>&lt;platform&gt;.get_chassis()</desc><path d="M0 1750.35 L181.44 1750.35" class="st6"/><rect width="141.025" height="14.4" x="24.448" y="1743.15" class="st8"/><text x="24.45" y="1753.95" class="st9">&lt;platform&gt;.get_chassis()</text></g><g id="shape19-52" transform="translate(297.712,-1629.09)"><title>Return Message.1135</title><desc>return &lt;chassis&gt;</desc><path d="M0 1750.35 L-189.92 1750.35" class="st10"/><rect width="94.202" height="14.4" x="-142.061" y="1743.15" class="st8"/><text x="-142.06" y="1753.95" class="st9">return &lt;chassis&gt;</text></g><g id="group20-60" transform="translate(613.775,-1692.87)"><title>Object lifeline.1136</title><desc>module : ModuleBase&lt;DeviceBase&gt;</desc><g id="shape21-61" transform="translate(59.5276,-8.50394)"><title>Sheet.21</title><rect width="51.024" height="25.512" x="0" y="1731.92" class="st1"/></g><g id="shape22-63" transform="translate(76.5354,-46.063)"><title>Sheet.22</title><path d="M8.5 1757.43 a0 0 0 1 1 0 0 a0 0 0 1 1 0 0 Z" class="st1"/></g><g id="shape23-65" transform="translate(56.6929,1674.87)"><title>Sheet.23</title></g><g id="shape24-67" transform="translate(1842.47,1757.43) rotate(90)"><title>Sheet.24</title><path d="M0 1757.43 L1651.18 1757.43" class="st2"/></g><g id="shape20-70"><rect width="170.079" height="42.52" x="0" y="1714.91" class="st1"/><text x="60.3" y="1732.57" class="st3">module : <tspan x="10.17" class="st4" dy="1.2em">ModuleBase&lt;DeviceBase&gt;</tspan></text></g></g><g id="shape25-74" transform="translate(-1649.64,121.256) rotate(-90)"><title>Activation.1141</title><rect width="28.346" height="8.504" x="0" y="1748.93" class="st5"/></g><g id="shape26-76" transform="translate(107.791,-1600.74)"><title>Message.1142</title><desc>&lt;chassis&gt;.get_name()</desc><path d="M0 1750.35 L379.87 1750.35" class="st6"/><rect width="122.544" height="14.4" x="132.901" y="1743.15" class="st11"/><text x="132.9" y="1753.95" class="st9">&lt;chassis&gt;.get_name()</text></g><g id="shape27-83" transform="translate(496.138,-1572.4)"><title>Return Message.1143</title><desc>return &lt;chassis_name&gt;</desc><path d="M0 1750.35 L-388.35 1750.35" class="st10"/><rect width="130.384" height="14.4" x="-259.365" y="1743.15" class="st8"/><text x="-259.36" y="1753.95" class="st9">return &lt;chassis_name&gt;</text></g><g id="shape28-90" transform="translate(-1649.64,177.949) rotate(-90)"><title>Activation.1144</title><rect width="28.346" height="8.504" x="0" y="1748.93" class="st5"/></g><g id="shape29-92" transform="translate(-1252.79,177.949) rotate(-90)"><title>Activation.1145</title><rect width="28.346" height="8.504" x="0" y="1748.93" class="st5"/></g><g id="group30-94" transform="translate(53.9331,-183.422)"><title>Loop fragment.1146</title><g id="shape30-95"><rect width="892.913" height="701.575" x="0" y="1055.86" class="st12"/></g><g id="shape31-97" transform="translate(0,-679.171)"><title>Sheet.31</title><desc>loop</desc><path d="M0 1757.43 L88.91 1757.43 L96 1750.35 L96 1735.03 L0 1735.03 L0 1757.43 Z" class="st13"/><text x="4" y="1749.83" class="st14">loop</text></g><g id="shape32-100" transform="translate(0,-656.767)"><title>Sheet.32</title><desc>[ for module in &lt;module_list&gt; ]</desc><text x="4" y="1749.83" class="st15">[ for module in &lt;module_list&gt; ]</text></g></g><g id="shape33-102" transform="translate(107.791,-828.304)"><title>Message.1149</title><desc>&lt;module&gt;.get_name()</desc><path d="M0 1750.35 L578.29 1750.35" class="st6"/><rect width="126.775" height="14.4" x="229.998" y="1743.15" class="st8"/><text x="230" y="1753.95" class="st9">&lt;module&gt;.get_name()</text></g><g id="shape34-109" transform="translate(694.563,-814.131)"><title>Return Message.1150</title><desc>return &lt;module_name&gt;</desc><path d="M0 1764.52 L-586.77 1764.52" class="st10"/><rect width="134.615" height="14.4" x="-360.693" y="1757.32" class="st8"/><text x="-360.69" y="1768.12" class="st9">return &lt;module_name&gt;</text></g><g id="shape35-116" transform="translate(-1649.64,950.39) rotate(-90)"><title>Activation.1151</title><rect width="28.346" height="8.504" x="0" y="1748.93" class="st5"/></g><g id="shape36-118" transform="translate(-1054.37,950.39) rotate(-90)"><title>Activation.1152</title><rect width="28.346" height="8.504" x="0" y="1748.93" class="st5"/></g><g id="shape37-120" transform="translate(-1649.64,1007.08) rotate(-90)"><title>Activation.1153</title><rect width="28.346" height="8.504" x="0" y="1748.93" class="st5"/></g><g id="shape38-122" transform="translate(-1054.37,1007.08) rotate(-90)"><title>Activation.1154</title><rect width="28.346" height="8.504" x="0" y="1748.93" class="st5"/></g><g id="shape39-124" transform="translate(107.791,-771.611)"><title>Message.1155</title><desc>&lt;module&gt;.get_all_components()</desc><path d="M0 1750.35 L578.29 1750.35" class="st6"/><rect width="183.658" height="14.4" x="201.557" y="1743.15" class="st8"/><text x="201.56" y="1753.95" class="st9">&lt;module&gt;.get_all_components()</text></g><g id="shape40-131" transform="translate(694.563,-757.438)"><title>Return Message.1156</title><desc>return &lt;component_list&gt;</desc><path d="M0 1764.52 L-586.77 1764.52" class="st10"/><rect width="141.81" height="14.4" x="-364.291" y="1757.32" class="st8"/><text x="-364.29" y="1768.12" class="st9">return &lt;component_list&gt;</text></g><g id="shape41-138" transform="translate(-1649.64,1687.4) rotate(-90)"><title>Activation.1157</title><rect width="85.039" height="8.504" x="0" y="1748.93" class="st5"/></g><g id="shape42-140" transform="translate(100.704,-155.075)"><title>Self Message.1158</title><desc>show_updates(&lt;chassis_component_map&gt;,&lt;module_component_map&gt;)</desc><path d="M7.09 1757.43 L25.09 1757.43 L25.09 1842.47 L15.57 1842.47" class="st6"/><rect width="405.878" height="14.4" x="21.804" y="1792.75" class="st11"/><text x="21.8" y="1803.55" class="st9">show_updates(&lt;chassis<tspan class="st16">_component_map</tspan>&gt;,&lt;<tspan class="st16">module_component_map</tspan>&gt;)</text></g><g id="shape43-149" transform="translate(-1649.64,234.642) rotate(-90)"><title>Activation.1159</title><rect width="28.346" height="8.504" x="0" y="1748.93" class="st5"/></g><g id="shape44-151" transform="translate(-1252.79,234.642) rotate(-90)"><title>Activation.1160</title><rect width="28.346" height="8.504" x="0" y="1748.93" class="st5"/></g><g id="shape45-153" transform="translate(107.791,-1544.05)"><title>Message.1161</title><desc>&lt;chassis&gt;.get_all_components()</desc><path d="M0 1750.35 L379.87 1750.35" class="st6"/><rect width="179.427" height="14.4" x="104.46" y="1743.15" class="st8"/><text x="104.46" y="1753.95" class="st9">&lt;chassis&gt;.get_all_components()</text></g><g id="shape46-160" transform="translate(496.138,-1515.71)"><title>Return Message.1162</title><desc>return &lt;component_list&gt;</desc><path d="M0 1750.35 L-386.93 1750.35" class="st10"/><rect width="141.81" height="14.4" x="-264.37" y="1743.15" class="st11"/><text x="-264.37" y="1753.95" class="st9">return &lt;component_list&gt;</text></g><g id="group47-167" transform="translate(68.1064,-970.036)"><title>Loop fragment.1163</title><g id="shape47-168"><rect width="864.567" height="524.409" x="0" y="1233.02" class="st12"/></g><g id="shape48-170" transform="translate(0,-502.006)"><title>Sheet.48</title><desc>loop</desc><path d="M0 1757.43 L88.91 1757.43 L96 1750.35 L96 1735.03 L0 1735.03 L0 1757.43 Z" class="st13"/><text x="4" y="1749.83" class="st14">loop</text></g><g id="shape49-173" transform="translate(0,-479.602)"><title>Sheet.49</title><desc>[ for component in &lt;component_list&gt; ]</desc><text x="4" y="1749.83" class="st15">[ for component in &lt;component_list&gt; ]</text></g></g><g id="shape50-175" transform="translate(-1649.64,759.051) rotate(-90)"><title>Activation.1166</title><rect width="28.346" height="8.504" x="0" y="1748.93" class="st5"/></g><g id="shape51-177" transform="translate(100.705,-1026.73)"><title>Self Message.1167</title><desc>chassis_component_map[&lt;chassis_name&gt;][&lt;component_name&gt;] = &lt;ch...</desc><path d="M7.09 1757.43 L25.09 1757.43 L25.09 1785.78 L15.57 1785.78" class="st6"/><rect width="539.894" height="14.4" x="21.539" y="1764.41" class="st8"/><text x="21.54" y="1775.21" class="st9">chassis<tspan class="st16">_component_map[&lt;chassis_name&gt;][&lt;component_name&gt;] = &lt;</tspan>chassis<tspan class="st16">_component_tuple&gt;</tspan></text></g><g id="shape52-186" transform="translate(107.791,-1381.06)"><title>Message.1168</title><desc>&lt;component&gt;.get_firmware_version()</desc><path d="M0 1750.35 L776.72 1750.35" class="st6"/><rect width="214.309" height="14.4" x="285.444" y="1743.15" class="st11"/><text x="285.44" y="1753.95" class="st9">&lt;<tspan class="st16">component</tspan>&gt;.get_firmware_version()</text></g><g id="shape53-194" transform="translate(892.988,-1352.71)"><title>Return Message.1169</title><desc>return &lt;firmware_version&gt;</desc><path d="M0 1750.35 L-785.2 1750.35" class="st10"/><rect width="152.621" height="14.4" x="-468.909" y="1743.15" class="st11"/><text x="-468.91" y="1753.95" class="st9">return &lt;firmware_version&gt;</text></g><g id="shape54-201" transform="translate(-1649.64,397.634) rotate(-90)"><title>Activation.1170</title><rect width="28.346" height="8.504" x="0" y="1748.93" class="st5"/></g><g id="shape55-203" transform="translate(-1649.64,844.091) rotate(-90)"><title>Activation.1171</title><rect width="28.346" height="8.504" x="0" y="1748.93" class="st5"/></g><g id="shape56-205" transform="translate(-1252.79,844.091) rotate(-90)"><title>Activation.1172</title><rect width="28.346" height="8.504" x="0" y="1748.93" class="st5"/></g><g id="shape57-207" transform="translate(107.791,-934.603)"><title>Message.1173</title><desc>&lt;chassis&gt;.get_all_modules()</desc><path d="M0 1750.35 L379.87 1750.35" class="st6"/><rect width="157.8" height="14.4" x="115.273" y="1743.15" class="st11"/><text x="115.27" y="1753.95" class="st9">&lt;chassis&gt;.get_all_modules()</text></g><g id="shape58-214" transform="translate(496.138,-906.256)"><title>Return Message.1174</title><desc>return &lt;module_list&gt;</desc><path d="M0 1750.35 L-388.35 1750.35" class="st10"/><rect width="120.183" height="14.4" x="-254.265" y="1743.15" class="st8"/><text x="-254.26" y="1753.95" class="st9">return &lt;module_list&gt;</text></g><g id="group59-221" transform="translate(812.201,-1692.87)"><title>Object lifeline.1175</title><desc>сomponent : ComponentBase&lt;Object&gt;</desc><g id="shape60-222" transform="translate(59.5276,-8.50394)"><title>Sheet.60</title><rect width="51.024" height="25.512" x="0" y="1731.92" class="st1"/></g><g id="shape61-224" transform="translate(76.5354,-46.063)"><title>Sheet.61</title><path d="M8.5 1757.43 a0 0 0 1 1 0 0 a0 0 0 1 1 0 0 Z" class="st1"/></g><g id="shape62-226" transform="translate(56.6929,1674.87)"><title>Sheet.62</title></g><g id="shape63-228" transform="translate(1842.47,1757.43) rotate(90)"><title>Sheet.63</title><path d="M0 1757.43 L1651.18 1757.43" class="st2"/></g><g id="shape59-231"><rect width="170.079" height="42.52" x="0" y="1714.91" class="st1"/><text x="49.48" y="1732.57" class="st3">сomponent<tspan class="st4"> </tspan><tspan class="st4">: </tspan><tspan x="12.02" class="st4" dy="1.2em">ComponentBase</tspan><tspan class="st4">&lt;Object&gt;</tspan></text></g></g><g id="shape64-238" transform="translate(107.791,-1324.37)"><title>Message.1180</title><desc>&lt;component&gt;.get_available_firmware_version(&lt;image_path&gt;)</desc><path d="M0 1750.35 L776.72 1750.35" class="st6"/><rect width="351.854" height="14.4" x="216.671" y="1743.15" class="st8"/><text x="216.67" y="1753.95" class="st9">&lt;<tspan class="st16">component</tspan>&gt;.get_available_firmware_version(&lt;image_path&gt;)</text></g><g id="shape65-246" transform="translate(892.988,-1296.02)"><title>Return Message.1181</title><desc>return &lt;available_firmware_version&gt;</desc><path d="M0 1750.35 L-785.2 1750.35" class="st10"/><rect width="207.641" height="14.4" x="-496.419" y="1743.15" class="st8"/><text x="-496.42" y="1753.95" class="st9">return &lt;available_firmware_version&gt;</text></g><g id="shape66-253" transform="translate(-1649.64,454.327) rotate(-90)"><title>Activation.1182</title><rect width="28.346" height="8.504" x="0" y="1748.93" class="st5"/></g><g id="shape67-255" transform="translate(-855.942,454.327) rotate(-90)"><title>Activation.1183</title><rect width="28.346" height="8.504" x="0" y="1748.93" class="st5"/></g><g id="shape68-257" transform="translate(-855.942,397.634) rotate(-90)"><title>Activation.1184</title><rect width="28.346" height="8.504" x="0" y="1748.93" class="st5"/></g><g id="shape69-259" transform="translate(107.791,-1437.75)"><title>Message.1185</title><desc>&lt;component&gt;.get_name()</desc><path d="M0 1750.35 L776.72 1750.35" class="st6"/><rect width="148.402" height="14.4" x="318.397" y="1743.15" class="st8"/><text x="318.4" y="1753.95" class="st9">&lt;<tspan class="st16">component</tspan>&gt;.get_name()</text></g><g id="shape70-267" transform="translate(892.988,-1409.41)"><title>Return Message.1186</title><desc>return &lt;component_name&gt;</desc><path d="M0 1750.35 L-785.2 1750.35" class="st10"/><rect width="156.242" height="14.4" x="-470.719" y="1743.15" class="st8"/><text x="-470.72" y="1753.95" class="st9">return &lt;<tspan class="st16">component_name</tspan>&gt;</text></g><g id="shape71-275" transform="translate(-1649.64,340.941) rotate(-90)"><title>Activation.1187</title><rect width="28.346" height="8.504" x="0" y="1748.93" class="st5"/></g><g id="shape72-277" transform="translate(-855.942,340.941) rotate(-90)"><title>Activation.1188</title><rect width="28.346" height="8.504" x="0" y="1748.93" class="st5"/></g><g id="group73-279" transform="translate(68.1064,-197.595)"><title>Loop fragment.1189</title><g id="shape73-280"><rect width="864.567" height="524.409" x="0" y="1233.02" class="st12"/></g><g id="shape74-282" transform="translate(0,-502.006)"><title>Sheet.74</title><desc>loop</desc><path d="M0 1757.43 L88.91 1757.43 L96 1750.35 L96 1735.03 L0 1735.03 L0 1757.43 Z" class="st13"/><text x="4" y="1749.83" class="st14">loop</text></g><g id="shape75-285" transform="translate(0,-479.602)"><title>Sheet.75</title><desc>[ for component in &lt;component_list&gt; ]</desc><text x="4" y="1749.83" class="st15">[ for component in &lt;component_list&gt; ]</text></g></g><g id="shape76-287" transform="translate(-1649.64,1531.49) rotate(-90)"><title>Activation.1192</title><rect width="28.346" height="8.504" x="0" y="1748.93" class="st5"/></g><g id="shape77-289" transform="translate(100.704,-254.288)"><title>Self Message.1193</title><desc>module_component_map[&lt;chassis_name&gt;][&lt;module_name&gt;][&lt;componen...</desc><path d="M7.09 1757.43 L25.09 1757.43 L25.09 1785.78 L15.57 1785.78" class="st6"/><rect width="653.287" height="14.4" x="20.437" y="1764.41" class="st8"/><text x="20.44" y="1775.21" class="st17">module_component_map[&lt;chassis_name&gt;][&lt;module_name&gt;][&lt;component_name&gt;] = &lt;module_component_tuple&gt;</text></g><g id="shape78-296" transform="translate(107.791,-608.619)"><title>Message.1194</title><desc>&lt;component&gt;.get_firmware_version()</desc><path d="M0 1750.35 L776.72 1750.35" class="st6"/><rect width="214.309" height="14.4" x="285.444" y="1743.15" class="st8"/><text x="285.44" y="1753.95" class="st9">&lt;<tspan class="st16">component</tspan>&gt;.get_firmware_version()</text></g><g id="shape79-304" transform="translate(892.988,-580.272)"><title>Return Message.1195</title><desc>return &lt;firmware_version&gt;</desc><path d="M0 1750.35 L-785.2 1750.35" class="st10"/><rect width="152.621" height="14.4" x="-468.909" y="1743.15" class="st8"/><text x="-468.91" y="1753.95" class="st9">return &lt;firmware_version&gt;</text></g><g id="shape80-311" transform="translate(-1649.64,1170.07) rotate(-90)"><title>Activation.1196</title><rect width="28.346" height="8.504" x="0" y="1748.93" class="st5"/></g><g id="shape81-313" transform="translate(107.791,-551.926)"><title>Message.1197</title><desc>&lt;component&gt;.get_available_firmware_version(&lt;image_path&gt;)</desc><path d="M0 1750.35 L776.72 1750.35" class="st6"/><rect width="351.854" height="14.4" x="216.671" y="1743.15" class="st11"/><text x="216.67" y="1753.95" class="st9">&lt;<tspan class="st16">component</tspan>&gt;.get_available_firmware_version(&lt;image_path&gt;)</text></g><g id="shape82-321" transform="translate(892.988,-523.579)"><title>Return Message.1198</title><desc>return &lt;available_firmware_version&gt;</desc><path d="M0 1750.35 L-785.2 1750.35" class="st10"/><rect width="207.641" height="14.4" x="-496.419" y="1743.15" class="st8"/><text x="-496.42" y="1753.95" class="st9">return &lt;available_firmware_version&gt;</text></g><g id="shape83-328" transform="translate(-1649.64,1226.77) rotate(-90)"><title>Activation.1199</title><rect width="28.346" height="8.504" x="0" y="1748.93" class="st5"/></g><g id="shape84-330" transform="translate(-855.942,1226.77) rotate(-90)"><title>Activation.1200</title><rect width="28.346" height="8.504" x="0" y="1748.93" class="st5"/></g><g id="shape85-332" transform="translate(-855.942,1170.07) rotate(-90)"><title>Activation.1201</title><rect width="28.346" height="8.504" x="0" y="1748.93" class="st5"/></g><g id="shape86-334" transform="translate(107.791,-665.312)"><title>Message.1202</title><desc>&lt;component&gt;.get_name()</desc><path d="M0 1750.35 L776.72 1750.35" class="st6"/><rect width="148.402" height="14.4" x="318.397" y="1743.15" class="st11"/><text x="318.4" y="1753.95" class="st9">&lt;<tspan class="st16">component</tspan>&gt;.get_name()</text></g><g id="shape87-342" transform="translate(892.988,-636.965)"><title>Return Message.1203</title><desc>return &lt;component_name&gt;</desc><path d="M0 1750.35 L-785.2 1750.35" class="st10"/><rect width="156.242" height="14.4" x="-470.719" y="1743.15" class="st8"/><text x="-470.72" y="1753.95" class="st9">return &lt;<tspan class="st16">component_name</tspan>&gt;</text></g><g id="shape88-350" transform="translate(-1649.64,1113.38) rotate(-90)"><title>Activation.1204</title><rect width="28.346" height="8.504" x="0" y="1748.93" class="st5"/></g><g id="shape89-352" transform="translate(-855.942,1113.38) rotate(-90)"><title>Activation.1205</title><rect width="28.346" height="8.504" x="0" y="1748.93" class="st5"/></g><g id="shape90-354" transform="translate(-1649.64,511.02) rotate(-90)"><title>Activation.1207</title><rect width="28.346" height="8.504" x="0" y="1748.93" class="st5"/></g><g id="shape91-356" transform="translate(100.705,-1274.76)"><title>Self Message.1208</title><desc>status = &apos;up-to-date&apos;</desc><path d="M7.09 1757.43 L25.09 1757.43 L25.09 1785.78 L15.57 1785.78" class="st6"/><rect width="117.212" height="14.4" x="22.181" y="1764.41" class="st8"/><text x="22.18" y="1775.21" class="st9">status = &apos;up-to-date&apos;</text></g><g id="group92-363" transform="translate(82.2796,-1111.77)"><title>Optional fragment.1210</title><g id="shape92-364"><rect width="836.221" height="106.299" x="0" y="1651.13" class="st12"/></g><g id="shape93-366" transform="translate(0,-83.8955)"><title>Sheet.93</title><desc>opt</desc><path d="M0 1757.43 L88.91 1757.43 L96 1750.35 L96 1735.03 L0 1735.03 L0 1757.43 Z" class="st13"/><text x="4" y="1749.83" class="st14">opt</text></g><g id="shape94-369" transform="translate(0,-61.4918)"><title>Sheet.94</title><desc>[ if &lt;firmware_version&gt; != &lt;available_firmware_version&gt; ]</desc><text x="4" y="1749.83" class="st15">[ if &lt;firmware_version&gt; != &lt;available_firmware_version&gt; ]</text></g></g><g id="shape95-371" transform="translate(-1649.64,617.319) rotate(-90)"><title>Activation.1213</title><rect width="28.346" height="8.504" x="0" y="1748.93" class="st5"/></g><g id="shape96-373" transform="translate(100.705,-1168.46)"><title>Self Message.1214</title><desc>status = &apos;update is required&apos;</desc><path d="M7.09 1757.43 L25.09 1757.43 L25.09 1785.78 L15.57 1785.78" class="st6"/><rect width="158.878" height="14.4" x="22.608" y="1764.41" class="st11"/><text x="22.61" y="1775.21" class="st9">status = &apos;update is required&apos;</text></g><g id="shape97-380" transform="translate(-1649.64,1474.8) rotate(-90)"><title>Activation.1229</title><rect width="28.346" height="8.504" x="0" y="1748.93" class="st5"/></g><g id="shape98-382" transform="translate(100.705,-310.981)"><title>Self Message.1230</title><desc>module_component_tuple = (&lt;image_path&gt;,&lt;firmware_version&gt;,&lt;av...</desc><path d="M7.09 1757.43 L25.09 1757.43 L25.09 1785.78 L15.57 1785.78" class="st6"/><rect width="596.708" height="14.4" x="19.126" y="1764.41" class="st8"/><text x="19.13" y="1775.21" class="st17">module_component_tuple = (&lt;image_path&gt;,&lt;<tspan class="st18">firmware_version</tspan>&gt;,&lt;<tspan class="st18">available_firmware_version&gt;</tspan>,&lt;status&gt;)</text></g><g id="shape99-391" transform="translate(-1649.64,1283.46) rotate(-90)"><title>Activation.1236</title><rect width="28.346" height="8.504" x="0" y="1748.93" class="st5"/></g><g id="shape100-393" transform="translate(100.705,-502.32)"><title>Self Message.1237</title><desc>status = &apos;up-to-date&apos;</desc><path d="M7.09 1757.43 L25.09 1757.43 L25.09 1785.78 L15.57 1785.78" class="st6"/><rect width="117.212" height="14.4" x="22.181" y="1764.41" class="st8"/><text x="22.18" y="1775.21" class="st9">status = &apos;up-to-date&apos;</text></g><g id="group101-400" transform="translate(82.2796,-339.327)"><title>Optional fragment.1238</title><g id="shape101-401"><rect width="836.221" height="106.299" x="0" y="1651.13" class="st12"/></g><g id="shape102-403" transform="translate(0,-83.8955)"><title>Sheet.102</title><desc>opt</desc><path d="M0 1757.43 L88.91 1757.43 L96 1750.35 L96 1735.03 L0 1735.03 L0 1757.43 Z" class="st13"/><text x="4" y="1749.83" class="st14">opt</text></g><g id="shape103-406" transform="translate(0,-61.4918)"><title>Sheet.103</title><desc>[ if &lt;firmware_version&gt; != &lt;available_firmware_version&gt; ]</desc><text x="4" y="1749.83" class="st15">[ if &lt;firmware_version&gt; != &lt;available_firmware_version&gt; ]</text></g></g><g id="shape104-408" transform="translate(-1649.64,1389.76) rotate(-90)"><title>Activation.1241</title><rect width="28.346" height="8.504" x="0" y="1748.93" class="st5"/></g><g id="shape105-410" transform="translate(100.705,-396.02)"><title>Self Message.1242</title><desc>status = &apos;update is required&apos;</desc><path d="M7.09 1757.43 L25.09 1757.43 L25.09 1785.78 L15.57 1785.78" class="st6"/><rect width="158.878" height="14.4" x="22.608" y="1764.41" class="st11"/><text x="22.61" y="1775.21" class="st9">status = &apos;update is required&apos;</text></g><g id="shape106-417" transform="translate(-1649.64,702.358) rotate(-90)"><title>Activation.1246</title><rect width="28.346" height="8.504" x="0" y="1748.93" class="st5"/></g><g id="shape107-419" transform="translate(100.705,-1083.42)"><title>Self Message.1247</title><desc>chassis_component_tuple = (&lt;image_path&gt;,&lt;firmware_version&gt;,&lt;a...</desc><path d="M7.09 1757.43 L25.09 1757.43 L25.09 1785.78 L15.57 1785.78" class="st6"/><rect width="592.477" height="14.4" x="21.95" y="1764.41" class="st8"/><text x="21.95" y="1775.21" class="st9">chassis<tspan class="st16">_component_tuple = (&lt;image_path&gt;,&lt;</tspan>firmware_version<tspan class="st16">&gt;,&lt;</tspan>available_firmware_version<tspan class="st16">&gt;,&lt;status&gt;)</tspan></text></g></g></svg>